#VRML V2.0 utf8
# 3D model generated by easyeda2kicad.py (https://github.com/uPesy/easyeda2kicad.py)

Shape{
    appearance Appearance {
        material  Material 	{
            diffuseColor 0.25098039215686274 0.25098039215686274 0.25098039215686274
            specularColor 0.12549019607843137 0.12549019607843137 0.12549019607843137
            ambientIntensity 0.251
            transparency 0.0
            shininess 0.5
        }
    }
    geometry IndexedFaceSet {
        ccw TRUE
        solid FALSE
        coord DEF co Coordinate {
            point [
                -0.2613 0.118 0.4173, -0.2613 1.0373 0.4173, -0.4533 1.0373 0.4173, 0.9191 0.118 0.4173, 0.9191 1.0373 0.4173, 0.4457 1.0373 0.4173, 0.3791 0.118 0.4173, 0.382 0.1177 0.4173, 0.4457 0.118 0.4173, 0.3936 0.1137 0.4173, 0.4038 0.1069 0.4173, 0.4457 -0.0812 0.4173, 0.4103 -0.0594 0.4173, 0.4006 -0.0697 0.4173, 0.3905 -0.0764 0.4173, 0.3783 -0.0808 0.4173, 0.3741 -0.0812 0.4173, 0.4118 0.0983 0.4173, 0.42 0.0835 0.4173, 0.4271 0.0584 0.4173, 0.4301 0.0192 0.4173, 0.4275 -0.0151 0.4173, 0.4204 -0.0411 0.4173, 0.3493 -0.0809 0.4173, 0.3379 -0.0768 0.4173, 0.2921 -0.0812 0.4173, 0.3102 0.0778 0.4173, 0.3201 0.0962 0.4173, 0.2921 0.118 0.4173, 0.3292 0.106 0.4173, 0.3396 0.113 0.4173, 0.3518 0.1175 0.4173, 0.3569 0.118 0.4173, 0.328 -0.0703 0.4173, 0.3183 -0.0597 0.4173, 0.3097 -0.0438 0.4173, 0.3027 -0.0175 0.4173, 0.3005 0.0146 0.4173, 0.303 0.0501 0.4173, 0.2921 -0.476 0.4173, 0.3633 -0.0824 0.4173, 0.3522 -0.0812 0.4173, 0.4457 -0.476 0.4173, 0.4669 -0.0773 0.4173, 0.4613 -0.0747 0.4173, 0.4613 -0.0506 0.4173, 0.4711 0.1168 0.4173, 0.5645 0.1168 0.4173, 0.5144 0.0169 0.4173, 0.4972 0.0184 0.4173, 0.5477 -0.0203 0.4173, 0.5408 0.0338 0.4173, 0.554 0.0261 0.4173, 0.5645 0.0952 0.4173, 0.4637 0.0168 0.4173, 0.4804 0.018 0.4173, 0.481 -0.0582 0.4173, 0.5019 -0.0608 0.4173, 0.5149 -0.0596 0.4173, 0.5255 0.0383 0.4173, 0.5678 -0.0479 0.4173, 0.5597 -0.06 0.4173, 0.9191 -0.0812 0.4173, 0.5488 -0.0697 0.4173, 0.5394 0.0036 0.4173, 0.5333 0.0091 0.4173, 0.544 -0.0032 0.4173, 0.5466 -0.0103 0.4173, 0.5269 0.0129 0.4173, 0.5403 -0.0442 0.4173, 0.5445 -0.0369 0.4173, 0.5471 -0.0283 0.4173, 0.5251 -0.0562 0.4173, 0.5341 -0.0506 0.4173, 0.5059 0.04 0.4173, 0.4919 0.0952 0.4173, 0.4877 0.0393 0.4173, 0.5628 0.0175 0.4173, 0.5693 0.0067 0.4173, 0.5729 -0.0049 0.4173, 0.5741 -0.0187 0.4173, 0.5723 -0.0353 0.4173, 0.5181 -0.0812 0.4173, 0.5165 -0.0816 0.4173, 0.5356 -0.0768 0.4173, 0.9191 -0.476 0.4173, 0.9191 -1.0372 0.4173, 0.503 -0.0824 0.4173, 0.4848 -0.0812 0.4173, 0.4816 -0.081 0.4173, 0.0654 -0.0812 0.4173, 0.0637 -0.0816 0.4173, 0.13 -0.476 0.4173, -0.0176 -0.476 0.4173, 0.0503 -0.0824 0.4173, 0.0372 -0.0812 0.4173, 0.1142 -0.0503 0.4173, 0.1069 -0.0608 0.4173, 0.13 -0.0812 0.4173, 0.0959 -0.0702 0.4173, 0.0826 -0.0771 0.4173, 0.0986 0.0152 0.4173, 0.1079 0.0079 0.4173, 0.13 0.118 0.4173, 0.1141 0.0001 0.4173, 0.1184 -0.0094 0.4173, 0.1203 -0.0196 0.4173, 0.1204 -0.0236 0.4173, 0.1186 -0.0388 0.4173, 0.109 0.0923 0.4173, 0.1122 0.083 0.4173, 0.0861 0.1138 0.4173, 0.0734 0.1177 0.4173, 0.0702 0.118 0.4173, 0.0959 0.1079 0.4173, 0.1038 0.1003 0.4173, 0.1132 0.0726 0.4173, 0.112 0.0601 0.4173, 0.1086 0.0499 0.4173, 0.1033 0.0415 0.4173, 0.073 0.0236 0.4173, 0.073 0.0231 0.4173, 0.0774 0.0249 0.4173, 0.0875 0.0202 0.4173, 0.0917 0.0314 0.4173, 0.1001 0.0379 0.4173, 0.0124 0.1042 0.4173, -0.0176 0.118 0.4173, 0.0124 0.0826 0.4173, -0.0176 -0.0812 0.4173, 0.0276 0.1133 0.4173, 0.0436 0.118 0.4173, -0.0176 1.0373 0.4173, 0.0438 0.1181 0.4173, 0.13 1.0373 0.4173, 0.0575 0.1192 0.4173, 0.0271 -0.0803 0.4173, 0.0101 -0.0748 0.4173, 0.0244 0.0328 0.4173, 0.0052 -0.0458 0.4173, 0.0244 0.0112 0.4173, 0.0213 -0.0551 0.4173, 0.0407 0.0112 0.4173, 0.0381 -0.0599 0.4173, 0.0503 -0.0608 0.4173, 0.0593 0.0099 0.4173, 0.0737 0.0059 0.4173, 0.0052 -0.0722 0.4173, 0.0233 0.0902 0.4173, 0.0399 0.0328 0.4173, 0.0372 0.0959 0.4173, 0.056 0.034 0.4173, 0.0868 0.0656 0.4173, 0.0868 0.0665 0.4173, 0.0633 -0.0597 0.4173, 0.094 -0.0251 0.4173, 0.0931 -0.0162 0.4173, 0.0908 -0.0095 0.4173, 0.0733 -0.0566 0.4173, 0.0805 -0.0525 0.4173, 0.0932 -0.0329 0.4173, 0.0862 -0.0472 0.4173, 0.0908 -0.0405 0.4173, 0.0671 0.037 0.4173, 0.075 0.0412 0.4173, 0.0799 0.0456 0.4173, 0.0833 0.0506 0.4173, 0.0856 0.0567 0.4173, 0.0741 0.0925 0.4173, 0.0672 0.0955 0.4173, 0.0861 0.0746 0.4173, 0.0557 0.0975 0.4173, 0.051 0.0976 0.4173, 0.087 -0.0036 0.4173, 0.0818 0.0014 0.4173, 0.0776 0.09 0.4173, 0.0842 0.0809 0.4173, 0.0815 0.0859 0.4173, 0.2921 1.0373 0.4173, 0.3677 0.1192 0.4173, -0.4533 0.118 0.4173, -0.6665 1.0373 0.4173, -0.6665 0.118 0.4173, 0.2837 -0.0128 0.4173, 0.2837 -0.0344 0.4173, 0.2549 -0.0344 0.4173, 0.2549 -0.08 0.4173, 0.2308 -0.08 0.4173, 0.2308 -0.0344 0.4173, 0.1396 -0.0344 0.4173, 0.1396 -0.0139 0.4173, 0.2549 -0.0128 0.4173, 0.2549 0.1168 0.4173, 0.2292 0.1168 0.4173, 0.1935 0.0568 0.4173, -0.0644 -0.08 0.4173, -0.2613 -0.0812 0.4173, -0.2182 0.0703 0.4173, -0.2181 0.0502 0.4173, -0.1485 -0.08 0.4173, -0.2181 0.0904 0.4173, -0.2188 0.0904 0.4173, -0.2156 0.0798 0.4173, -0.2123 0.0693 0.4173, -0.2421 0.1168 0.4173, -0.2421 -0.08 0.4173, -0.2181 -0.08 0.4173, -0.0639 0.0709 0.4173, -0.0625 0.0904 0.4173, -0.0632 0.0904 0.4173, -0.2085 0.1168 0.4173, -0.0657 0.0803 0.4173, -0.069 0.0704 0.4173, -0.0644 0.0514 0.4173, -0.134 -0.08 0.4173, -0.1414 -0.0416 0.4173, -0.1405 -0.0416 0.4173, -0.1454 -0.0294 0.4173, -0.136 -0.0293 0.4173, -0.1502 -0.0176 0.4173, -0.1312 -0.017 0.4173, -0.0716 0.1168 0.4173, -0.0404 0.1168 0.4173, -0.0404 -0.08 0.4173, -0.2903 -0.0261 0.4173, -0.3016 -0.0437 0.4173, -0.3178 -0.0592 0.4173, -0.3384 -0.0711 0.4173, -0.3319 0.1057 0.4173, -0.3105 0.0913 0.4173, -0.4389 -0.08 0.4173, -0.4389 0.1168 0.4173, -0.3834 0.1168 0.4173, -0.3549 0.1138 0.4173, -0.3103 0.0912 0.4173, -0.2964 0.0757 0.4173, -0.2872 0.0588 0.4173, -0.4533 -0.0812 0.4173, -0.3854 -0.08 0.4173, -0.361 -0.0779 0.4173, -0.2819 0.0394 0.4173, -0.2805 0.0209 0.4173, -0.2832 -0.0055 0.4173, -0.4677 0.0952 0.4173, -0.5253 0.0952 0.4173, -0.5253 -0.08 0.4173, -0.5518 -0.08 0.4173, -0.6665 -0.0812 0.4173, -0.5518 0.0952 0.4173, -0.607 0.0952 0.4173, -0.607 0.1168 0.4173, -0.4677 0.1168 0.4173, -0.2613 -0.476 0.4173, -0.4533 -0.476 0.4173, -0.6665 -0.476 0.4173, 0.4457 -1.0372 0.4173, 0.2921 -1.0372 0.4173, 0.13 -1.0372 0.4173, -0.0176 -1.0372 0.4173, -0.2613 -1.0372 0.4173, -0.4533 -1.0372 0.4173, -0.6665 -1.0372 0.4173, -0.7362 -0.9076 0.4173, -0.7286 -0.9259 0.4173, -0.7286 -0.9653 0.4173, -0.7362 -0.9836 0.4173, -0.7483 -0.9994 0.4173, -0.764 -1.0114 0.4173, -0.8679 -0.9076 0.4173, -0.8558 -0.8918 0.4173, -0.8986 -0.476 0.4173, -0.8401 -0.8798 0.4173, -0.8217 -0.8722 0.4173, -0.802 -0.8696 0.4173, -0.7824 -0.8722 0.4173, -0.726 -0.9456 0.4173, -0.8401 -1.0114 0.4173, -0.8558 -0.9994 0.4173, -0.8986 -1.0372 0.4173, -0.8679 -0.9836 0.4173, -0.764 -0.8798 0.4173, -0.7483 -0.8918 0.4173, -0.8755 -0.9653 0.4173, -0.8781 -0.9456 0.4173, -0.8755 -0.9259 0.4173, -0.8986 -0.0812 0.4173, -0.8986 0.118 0.4173, -0.8986 1.0373 0.4173, -0.7824 -1.019 0.4173, -0.802 -1.0216 0.4173, -0.8217 -1.019 0.4173, -0.9191 1.0373 0.4173, -0.9191 0.118 0.4173, -0.9191 -0.0812 0.4173, -0.9191 -0.476 0.4173, -0.9191 -1.0372 0.4173, -0.0561 -0.4271 0.0039, -0.0484 -0.6843 0.0039, -0.0561 -0.6934 0.0039, -0.0484 -0.6929 0.0039, -0.0062 -0.6929 0.0039, 0.0092 -0.6888 0.0039, 0.0092 -0.6802 0.0039, -0.0062 -0.6142 0.0039, -0.0168 -0.6228 0.0039, -0.0168 -0.6487 0.0039, -0.0465 -0.6228 0.0039, -0.0446 -0.6487 0.0039, -0.0168 -0.6574 0.0039, -0.0168 -0.6843 0.0039, -0.0446 -0.6574 0.0039, 0.1148 -0.6929 0.0039, 0.0355 -0.6934 0.0039, 0.0745 -0.6929 0.0039, 0.0405 -0.6929 0.0039, 0.0482 -0.6902 0.0039, -0.0465 -0.6142 0.0039, 0.7874 -0.059 0.0039, 0.9941 -0.059 0.0039, 0.7874 -0.4271 0.0039, 0.9941 -0.6934 0.0039, 0.0636 -0.6349 0.0039, 0.059 -0.6275 0.0039, 0.1042 -0.6142 0.0039, 0.0354 -0.6227 0.0039, 0.0413 -0.6248 0.0039, 0.0106 -0.681 0.0039, 0.0467 -0.6285 0.0039, 0.0515 -0.6337 0.0039, 0.0572 -0.6544 0.0039, 0.0564 -0.6629 0.0039, 0.0542 -0.6697 0.0039, 0.0367 -0.6844 0.0039, 0.0294 -0.6852 0.0039, 0.0425 -0.6823 0.0039, 0.0473 -0.679 0.0039, 0.051 -0.6751 0.0039, 0.0189 -0.6841 0.0039, 0.0547 -0.6398 0.0039, 0.0568 -0.6483 0.0039, 0.0545 -0.6862 0.0039, 0.0604 -0.68 0.0039, 0.0745 -0.6843 0.0039, 0.0646 -0.6725 0.0039, 0.1042 -0.6843 0.0039, 0.067 -0.6641 0.0039, 0.0677 -0.655 0.0039, 0.0666 -0.6438 0.0039, 0.0519 -0.6207 0.0039, 0.0444 -0.6164 0.0039, 0.0356 -0.6139 0.0039, 0.0277 -0.6132 0.0039, 0.0183 -0.6139 0.0039, 0.0092 -0.6163 0.0039, 0.0092 -0.6269 0.0039, 0.018 -0.6231 0.0039, 0.0276 -0.6219 0.0039, -0.9941 -0.059 0.0039, -0.7874 -0.059 0.0039, -0.9941 -0.6934 0.0039, -0.7874 -0.4271 0.0039, -0.1329 -0.6929 0.0039, -0.1233 -0.6713 0.0039, -0.1187 -0.6784 0.0039, -0.1123 -0.6846 0.0039, -0.104 -0.6894 0.0039, -0.095 -0.6921 0.0039, -0.1627 -0.6142 0.0039, -0.1733 -0.6142 0.0039, -0.1925 -0.6929 0.0039, -0.204 -0.6929 0.0039, -0.0852 -0.6929 0.0039, -0.0638 -0.6929 0.0039, -0.0638 -0.6142 0.0039, -0.086 -0.6142 0.0039, -0.1153 -0.6244 0.0039, -0.1208 -0.6306 0.0039, -0.1245 -0.6374 0.0039, -0.1445 -0.6929 0.0039, -0.152 -0.6708 0.0039, -0.1845 -0.6708 0.0039, -0.0974 -0.6154 0.0039, -0.1066 -0.6186 0.0039, -0.1152 -0.6244 0.0039, -0.1266 -0.6451 0.0039, -0.1272 -0.6525 0.0039, -0.1261 -0.6631 0.0039, -0.3327 -0.9744 0.0039, -0.3327 -1.1122 0.0039, -0.6673 -1.1122 0.0039, -0.6673 -0.9744 0.0039, -0.8327 -0.9744 0.0039, -0.1673 -0.9744 0.0039, -0.1673 -1.1122 0.0039, -0.0561 -1.1122 0.0039, -0.8327 -1.1122 0.0039, -0.9547 -1.1122 0.0039, -0.9941 -1.0728 0.0039, -0.9928 -1.083 0.0039, -0.9649 -1.1108 0.0039, -0.9744 -1.1069 0.0039, -0.9888 -1.0925 0.0039, -0.9826 -1.1006 0.0039, 0.1148 -0.6142 0.0039, 0.8327 -0.9744 0.0039, 0.6673 -1.1122 0.0039, 0.3327 -1.1122 0.0039, 0.6673 -0.9744 0.0039, 0.3327 -0.9744 0.0039, 0.9744 -1.1069 0.0039, 0.9649 -1.1108 0.0039, 0.9826 -1.1006 0.0039, 0.9547 -1.1122 0.0039, 0.9888 -1.0925 0.0039, 0.8327 -1.1122 0.0039, 0.9941 -1.0728 0.0039, 0.9928 -1.083 0.0039, 0.0176 -0.6923 0.0039, 0.0255 -0.6934 0.0039, 0.1673 -0.9744 0.0039, 0.1673 -1.1122 0.0039, 0.0287 -0.6938 0.0039, 0.0308 -0.6939 0.0039, 0.9941 -0.059 0.0906, 0.9941 -1.0728 0.0906, -0.9941 1.0729 0.0039, -0.9941 0.0591 0.0039, -0.9941 1.0729 0.0906, -0.9941 0.0591 0.0906, 0.9547 1.1123 0.0039, 0.8327 1.1123 0.0039, 0.9547 1.1123 0.0906, 0.8327 1.1123 0.0906, 0.3327 1.1123 0.0039, 0.3327 1.1123 0.0906, 0.6673 1.1123 0.0039, 0.6673 1.1123 0.0906, -0.1673 1.1123 0.0039, -0.1673 1.1123 0.0906, 0.1673 1.1123 0.0039, 0.1673 1.1123 0.0906, -0.6673 1.1123 0.0039, -0.6673 1.1123 0.0906, -0.3327 1.1123 0.0039, -0.3327 1.1123 0.0906, 0.9941 1.0729 0.0039, 0.8327 0.8426 0.0039, 0.9941 0.0591 0.0039, 0.7874 0.0591 0.0039, 0.8007 0.8293 0.0039, 0.81 0.8365 0.0039, 0.7935 0.8199 0.0039, 0.7889 0.809 0.0039, 0.7874 0.7973 0.0039, 0.821 0.841 0.0039, 0.9635 1.1113 0.0039, 0.9718 1.1084 0.0039, 0.9793 1.1037 0.0039, 0.9855 1.0974 0.0039, 0.9902 1.09 0.0039, 0.9931 1.0816 0.0039, 0.6476 0.9797 0.0039, 0.6381 0.9758 0.0039, 0.6558 0.986 0.0039, 0.628 0.9745 0.0039, 0.662 0.9941 0.0039, 0.372 0.9745 0.0039, 0.3327 1.0138 0.0039, 0.3619 0.9758 0.0039, 0.6673 1.0138 0.0039, 0.666 1.0036 0.0039, 0.3524 0.9797 0.0039, 0.3442 0.986 0.0039, 0.334 1.0036 0.0039, 0.338 0.9941 0.0039, -0.1663 1.0051 0.0039, -0.1673 1.0138 0.0039, -0.145 0.9784 0.0039, 0.1673 1.0138 0.0039, 0.1634 0.9967 0.0039, 0.1587 0.9893 0.0039, 0.1525 0.983 0.0039, -0.1367 0.9754 0.0039, 0.145 0.9784 0.0039, 0.1663 1.0051 0.0039, 0.1367 0.9754 0.0039, 0.128 0.9745 0.0039, -0.128 0.9745 0.0039, -0.1525 0.983 0.0039, -0.1587 0.9893 0.0039, -0.1634 0.9967 0.0039, -0.628 0.9745 0.0039, -0.3327 1.0138 0.0039, -0.372 0.9745 0.0039, -0.662 0.9941 0.0039, -0.666 1.0036 0.0039, -0.6673 1.0138 0.0039, -0.6558 0.986 0.0039, -0.6381 0.9758 0.0039, -0.6476 0.9797 0.0039, -0.3442 0.986 0.0039, -0.338 0.9941 0.0039, -0.334 1.0036 0.0039, -0.3524 0.9797 0.0039, -0.3619 0.9758 0.0039, -0.7874 0.7973 0.0039, -0.7874 0.0591 0.0039, -0.9547 1.1123 0.0039, -0.8327 1.1123 0.0039, -0.8327 0.8426 0.0039, -0.821 0.841 0.0039, -0.81 0.8365 0.0039, -0.9888 1.0926 0.0039, -0.9826 1.1007 0.0039, -0.9744 1.107 0.0039, -0.8007 0.8293 0.0039, -0.7935 0.8199 0.0039, -0.7889 0.809 0.0039, -0.9928 1.0831 0.0039, -0.9649 1.1109 0.0039, 0.3327 -1.1122 0.0906, 0.6673 -1.1122 0.0906, 0.1673 -1.1122 0.0906, -0.1673 -1.1122 0.0906, -0.6673 -1.1122 0.0906, -0.3327 -1.1122 0.0906, 0.9547 -1.1122 0.0906, 0.8327 -1.1122 0.0906, 0.9941 1.0729 0.0906, 0.9941 0.0591 0.0906, -0.9547 -1.1122 0.0906, -0.8327 -1.1122 0.0906, -0.9941 -1.0728 0.0906, -0.9941 -0.059 0.0906, -0.9547 1.1123 0.0906, -0.8327 1.1123 0.0906, 0.9941 1.0732 0.0906, 0.9582 1.0373 0.3828, 0.9941 -1.0731 0.0906, 0.9582 -1.0372 0.3828, -0.955 1.1123 0.0906, -0.9191 1.0764 0.3828, 0.955 1.1123 0.0906, 0.9191 1.0764 0.3828, -0.9582 1.0373 0.3828, -0.9941 1.0732 0.0906, -0.9582 -1.0372 0.3828, -0.9941 -1.0731 0.0906, 0.955 -1.1122 0.0906, 0.9191 -1.0763 0.3828, -0.955 -1.1122 0.0906, -0.9191 -1.0763 0.3828
            ]
        }
        coordIndex [
            0,1,2,-1,3,4,5,-1,6,7,8,-1,8,7,9,-1,8,9,10,-1,11,12,13,-1,13,14,11,-1,11,14,15,-1,11,15,16,-1,10,17,8,-1,8,17,18,-1,8,18,19,-1,20,21,11,-1,11,21,22,-1,11,22,12,-1,23,24,25,-1,26,27,28,-1,28,27,29,-1,29,30,28,-1,28,30,31,-1,28,31,32,-1,24,33,25,-1,25,33,34,-1,25,34,35,-1,35,36,25,-1,25,36,37,-1,25,37,28,-1,28,37,38,-1,28,38,26,-1,39,40,41,-1,40,39,16,-1,16,39,42,-1,16,42,11,-1,43,44,11,-1,19,20,8,-1,8,20,11,-1,8,11,45,-1,45,11,44,-1,46,47,8,-1,48,49,50,-1,51,52,53,-1,46,8,54,-1,54,8,45,-1,54,45,55,-1,55,45,56,-1,55,56,49,-1,49,56,57,-1,49,57,58,-1,51,53,59,-1,60,61,62,-1,62,61,63,-1,64,65,66,-1,66,65,67,-1,67,65,50,-1,50,65,68,-1,50,68,48,-1,69,70,49,-1,49,70,71,-1,49,71,50,-1,58,72,49,-1,49,72,73,-1,49,73,69,-1,59,53,74,-1,74,53,75,-1,74,75,76,-1,77,78,62,-1,62,78,79,-1,79,80,62,-1,62,80,81,-1,62,81,60,-1,82,83,42,-1,63,84,62,-1,62,84,82,-1,62,82,85,-1,85,82,42,-1,85,42,86,-1,83,87,42,-1,42,87,88,-1,42,88,11,-1,11,88,89,-1,11,89,43,-1,90,91,92,-1,92,91,93,-1,93,91,94,-1,93,94,95,-1,96,97,98,-1,97,99,98,-1,98,99,100,-1,98,100,90,-1,101,102,103,-1,103,102,104,-1,103,104,105,-1,106,107,98,-1,98,107,108,-1,98,108,96,-1,103,109,110,-1,111,103,112,-1,112,103,113,-1,111,114,103,-1,103,114,115,-1,103,115,109,-1,110,116,103,-1,103,116,117,-1,103,117,101,-1,101,117,118,-1,101,118,119,-1,120,121,122,-1,122,121,123,-1,122,123,124,-1,124,123,101,-1,124,101,125,-1,125,101,119,-1,126,127,128,-1,128,127,129,-1,126,130,127,-1,127,130,131,-1,127,131,132,-1,132,131,133,-1,132,133,134,-1,134,133,135,-1,134,135,113,-1,95,136,129,-1,129,136,137,-1,138,139,140,-1,140,139,141,-1,140,141,142,-1,141,143,142,-1,142,143,144,-1,142,144,145,-1,145,144,146,-1,137,147,129,-1,129,147,139,-1,129,139,128,-1,128,139,138,-1,128,138,148,-1,148,138,149,-1,148,149,150,-1,150,149,151,-1,150,152,153,-1,154,155,144,-1,144,155,156,-1,144,156,157,-1,154,158,155,-1,155,158,159,-1,155,159,160,-1,160,159,161,-1,160,161,162,-1,151,163,150,-1,150,163,164,-1,150,164,165,-1,165,166,150,-1,150,166,167,-1,150,167,152,-1,168,169,170,-1,170,169,171,-1,170,171,153,-1,153,171,172,-1,153,172,150,-1,157,173,144,-1,144,173,174,-1,144,174,146,-1,168,170,175,-1,175,170,176,-1,175,176,177,-1,52,77,53,-1,53,77,62,-1,53,62,47,-1,47,62,3,-1,47,3,8,-1,8,3,5,-1,8,5,6,-1,6,5,178,-1,6,178,179,-1,113,103,134,-1,134,103,28,-1,134,28,178,-1,178,28,32,-1,178,32,179,-1,0,2,180,-1,180,2,181,-1,180,181,182,-1,28,183,25,-1,25,183,184,-1,25,184,185,-1,185,186,25,-1,25,186,187,-1,25,187,98,-1,98,187,188,-1,98,188,189,-1,105,106,103,-1,103,106,98,-1,103,98,190,-1,190,98,189,-1,191,183,192,-1,192,183,28,-1,192,28,193,-1,193,28,103,-1,193,103,194,-1,194,103,190,-1,195,196,129,-1,197,198,199,-1,200,201,202,-1,202,201,197,-1,202,197,203,-1,203,197,199,-1,204,0,205,-1,205,0,196,-1,205,196,206,-1,207,208,209,-1,132,1,127,-1,127,1,0,-1,127,0,210,-1,210,0,204,-1,209,211,207,-1,207,211,212,-1,207,212,213,-1,213,212,214,-1,198,206,199,-1,199,206,196,-1,199,196,214,-1,214,196,195,-1,214,195,213,-1,215,216,217,-1,217,216,218,-1,217,218,219,-1,219,218,220,-1,219,220,210,-1,210,220,221,-1,210,221,127,-1,127,221,222,-1,127,222,129,-1,129,222,223,-1,129,223,195,-1,224,225,196,-1,196,225,226,-1,196,226,227,-1,0,228,229,-1,230,231,180,-1,180,231,232,-1,180,232,0,-1,0,232,233,-1,0,233,228,-1,229,234,0,-1,0,234,235,-1,0,235,236,-1,230,237,238,-1,238,237,196,-1,238,196,239,-1,239,196,227,-1,236,240,0,-1,0,240,241,-1,0,241,196,-1,196,241,242,-1,196,242,224,-1,230,180,237,-1,237,180,243,-1,237,243,244,-1,244,245,237,-1,237,245,246,-1,237,246,247,-1,246,248,247,-1,247,248,249,-1,247,249,182,-1,182,249,250,-1,182,250,180,-1,180,250,251,-1,180,251,243,-1,90,92,98,-1,98,92,39,-1,98,39,25,-1,25,39,41,-1,25,41,23,-1,95,129,93,-1,93,129,196,-1,93,196,252,-1,252,196,237,-1,252,237,253,-1,253,237,247,-1,253,247,254,-1,86,42,255,-1,255,42,39,-1,255,39,256,-1,256,39,92,-1,256,92,257,-1,257,92,93,-1,257,93,258,-1,258,93,252,-1,258,252,259,-1,259,252,253,-1,259,253,260,-1,260,253,254,-1,260,254,261,-1,262,263,254,-1,264,265,261,-1,261,265,266,-1,261,266,267,-1,268,269,270,-1,270,269,271,-1,270,271,272,-1,273,274,254,-1,254,263,261,-1,261,263,275,-1,261,275,264,-1,276,277,278,-1,278,277,279,-1,274,280,254,-1,254,280,281,-1,254,281,262,-1,279,282,278,-1,278,282,283,-1,278,283,270,-1,270,283,284,-1,270,284,268,-1,272,273,270,-1,270,273,254,-1,270,254,285,-1,285,254,247,-1,285,247,286,-1,286,247,182,-1,286,182,287,-1,287,182,181,-1,267,288,261,-1,261,288,289,-1,261,289,278,-1,278,289,290,-1,278,290,276,-1,287,291,286,-1,286,291,292,-1,286,292,285,-1,285,292,293,-1,285,293,270,-1,270,293,294,-1,270,294,278,-1,278,294,295,-1,296,297,298,-1,298,297,299,-1,298,299,300,-1,301,300,302,-1,302,300,303,-1,304,305,306,-1,306,305,307,-1,308,309,310,-1,310,309,297,-1,311,312,313,-1,313,312,314,-1,313,314,315,-1,303,316,296,-1,296,316,306,-1,296,306,297,-1,297,306,307,-1,297,307,310,-1,317,318,319,-1,319,318,320,-1,321,322,323,-1,324,325,326,-1,326,325,327,-1,326,327,328,-1,329,330,326,-1,326,330,331,-1,332,333,334,-1,334,333,335,-1,331,336,326,-1,326,336,335,-1,326,335,337,-1,337,335,333,-1,328,338,326,-1,326,338,339,-1,326,339,329,-1,315,340,313,-1,313,340,341,-1,313,341,342,-1,342,341,343,-1,342,343,344,-1,343,345,344,-1,344,345,346,-1,344,346,323,-1,323,346,347,-1,323,347,321,-1,348,349,296,-1,296,349,350,-1,296,350,351,-1,351,352,296,-1,296,352,353,-1,296,353,303,-1,303,353,354,-1,303,354,302,-1,302,354,355,-1,302,355,326,-1,326,355,356,-1,326,356,324,-1,357,358,359,-1,359,358,360,-1,361,362,363,-1,363,364,361,-1,361,364,365,-1,361,365,366,-1,296,367,368,-1,369,298,370,-1,370,298,359,-1,370,359,368,-1,368,359,360,-1,368,360,296,-1,371,372,298,-1,298,372,373,-1,298,373,296,-1,296,373,374,-1,375,376,367,-1,367,376,377,-1,366,371,361,-1,361,371,298,-1,361,298,378,-1,378,298,369,-1,378,369,379,-1,379,369,380,-1,374,381,296,-1,296,381,382,-1,296,382,367,-1,367,382,383,-1,367,383,375,-1,377,384,367,-1,367,384,385,-1,367,385,361,-1,361,385,386,-1,361,386,362,-1,387,388,389,-1,390,391,359,-1,389,390,387,-1,387,390,359,-1,387,359,392,-1,392,359,298,-1,392,298,393,-1,393,298,394,-1,391,395,359,-1,359,395,396,-1,359,396,397,-1,397,396,398,-1,396,399,398,-1,398,399,400,-1,398,400,401,-1,401,400,402,-1,322,348,323,-1,323,348,296,-1,323,296,403,-1,403,296,319,-1,403,319,311,-1,311,319,320,-1,311,320,312,-1,312,320,404,-1,405,406,407,-1,407,406,408,-1,409,410,411,-1,411,410,412,-1,411,412,413,-1,404,320,414,-1,414,320,415,-1,414,415,412,-1,412,415,416,-1,412,416,413,-1,301,417,300,-1,300,417,418,-1,300,418,298,-1,298,418,419,-1,298,419,394,-1,394,419,420,-1,418,421,419,-1,419,421,422,-1,419,422,408,-1,408,422,312,-1,408,312,407,-1,407,312,404,-1,318,423,320,-1,320,423,424,-1,320,424,415,-1,425,426,427,-1,427,426,428,-1,429,430,431,-1,431,430,432,-1,433,434,435,-1,435,434,436,-1,437,438,439,-1,439,438,440,-1,441,442,443,-1,443,442,444,-1,445,430,429,-1,430,445,446,-1,446,445,447,-1,446,447,448,-1,449,450,451,-1,451,450,452,-1,448,453,446,-1,446,453,452,-1,446,452,454,-1,454,452,450,-1,429,455,445,-1,445,455,456,-1,445,456,457,-1,457,458,445,-1,445,458,459,-1,445,459,460,-1,461,462,463,-1,463,462,464,-1,463,464,465,-1,464,466,467,-1,467,466,468,-1,433,435,467,-1,467,435,469,-1,467,469,464,-1,464,469,470,-1,464,470,465,-1,468,471,467,-1,467,471,472,-1,467,472,473,-1,473,472,474,-1,475,476,477,-1,437,439,476,-1,476,439,478,-1,479,480,481,-1,477,476,482,-1,483,478,481,-1,481,478,484,-1,481,484,479,-1,483,485,478,-1,478,485,486,-1,478,486,476,-1,476,486,487,-1,476,487,482,-1,488,489,477,-1,477,489,490,-1,477,490,475,-1,441,443,491,-1,491,443,492,-1,491,492,493,-1,494,495,491,-1,491,495,496,-1,491,496,441,-1,494,491,497,-1,497,491,498,-1,497,498,499,-1,500,492,501,-1,501,492,502,-1,500,503,492,-1,492,503,504,-1,492,504,493,-1,505,506,426,-1,507,508,425,-1,425,508,509,-1,425,509,426,-1,426,509,505,-1,505,509,510,-1,505,510,511,-1,512,513,514,-1,515,516,511,-1,511,516,517,-1,511,517,505,-1,425,518,507,-1,507,518,512,-1,507,512,519,-1,519,512,514,-1,520,406,521,-1,521,406,405,-1,420,522,394,-1,394,522,523,-1,394,523,393,-1,524,389,525,-1,525,389,388,-1,526,527,412,-1,412,527,414,-1,528,529,445,-1,445,529,447,-1,396,395,530,-1,530,395,531,-1,397,532,359,-1,359,532,533,-1,359,533,357,-1,534,535,507,-1,507,535,508,-1,528,536,537,-1,538,424,539,-1,539,424,423,-1,539,423,537,-1,537,423,529,-1,537,529,528,-1,534,540,541,-1,542,431,543,-1,543,431,432,-1,543,432,436,-1,436,434,543,-1,543,434,440,-1,543,440,541,-1,541,440,438,-1,541,438,444,-1,444,442,541,-1,541,442,535,-1,541,535,534,-1,544,545,427,-1,427,428,544,-1,544,428,533,-1,544,533,546,-1,546,533,532,-1,546,532,547,-1,526,548,549,-1,550,530,551,-1,551,530,531,-1,551,531,524,-1,524,525,551,-1,551,525,523,-1,551,523,549,-1,549,523,522,-1,549,522,520,-1,520,521,549,-1,549,521,527,-1,549,527,526,-1,
        ]
    }
}
Shape{
    appearance Appearance {
        material  Material 	{
            diffuseColor 0.0 0.0 0.0
            specularColor 0.0 0.0 0.0
            ambientIntensity 0.0
            transparency 0.0
            shininess 0.5
        }
    }
    geometry IndexedFaceSet {
        ccw TRUE
        solid FALSE
        coord DEF co Coordinate {
            point [
                -0.726 -0.9456 0.4169, -0.726 -0.9456 0.4173, -0.7286 -0.9259 0.4169, -0.7286 -0.9259 0.4173, -0.7362 -0.9076 0.4169, -0.7362 -0.9076 0.4173, -0.7483 -0.8918 0.4169, -0.7483 -0.8918 0.4173, -0.764 -0.8798 0.4169, -0.764 -0.8798 0.4173, -0.7824 -0.8722 0.4169, -0.7824 -0.8722 0.4173, -0.802 -0.8696 0.4169, -0.802 -0.8696 0.4173, -0.8217 -0.8722 0.4169, -0.8217 -0.8722 0.4173, -0.8401 -0.8798 0.4169, -0.8401 -0.8798 0.4173, -0.8558 -0.8918 0.4169, -0.8558 -0.8918 0.4173, -0.8679 -0.9076 0.4169, -0.8679 -0.9076 0.4173, -0.8755 -0.9259 0.4169, -0.8755 -0.9259 0.4173, -0.8781 -0.9456 0.4169, -0.8781 -0.9456 0.4173, -0.8755 -0.9653 0.4169, -0.8755 -0.9653 0.4173, -0.8679 -0.9836 0.4169, -0.8679 -0.9836 0.4173, -0.8558 -0.9994 0.4169, -0.8558 -0.9994 0.4173, -0.8401 -1.0114 0.4169, -0.8401 -1.0114 0.4173, -0.8217 -1.019 0.4169, -0.8217 -1.019 0.4173, -0.802 -1.0216 0.4169, -0.802 -1.0216 0.4173, -0.7824 -1.019 0.4169, -0.7824 -1.019 0.4173, -0.764 -1.0114 0.4169, -0.764 -1.0114 0.4173, -0.7483 -0.9994 0.4169, -0.7483 -0.9994 0.4173, -0.7362 -0.9836 0.4169, -0.7362 -0.9836 0.4173, -0.7286 -0.9653 0.4169, -0.7286 -0.9653 0.4173, -0.802 -0.9456 0.4169
            ]
        }
        coordIndex [
            0,1,2,-1,2,1,3,-1,2,3,4,-1,4,3,5,-1,4,5,6,-1,6,5,7,-1,6,7,8,-1,8,7,9,-1,8,9,10,-1,10,9,11,-1,10,11,12,-1,12,11,13,-1,12,13,14,-1,14,13,15,-1,14,15,16,-1,16,15,17,-1,16,17,18,-1,18,17,19,-1,18,19,20,-1,20,19,21,-1,20,21,22,-1,22,21,23,-1,22,23,24,-1,24,23,25,-1,24,25,26,-1,26,25,27,-1,26,27,28,-1,28,27,29,-1,28,29,30,-1,30,29,31,-1,30,31,32,-1,32,31,33,-1,32,33,34,-1,34,33,35,-1,34,35,36,-1,36,35,37,-1,36,37,38,-1,38,37,39,-1,38,39,40,-1,40,39,41,-1,40,41,42,-1,42,41,43,-1,42,43,44,-1,44,43,45,-1,44,45,46,-1,46,45,47,-1,46,47,0,-1,0,47,1,-1,44,46,48,-1,48,46,0,-1,48,0,2,-1,38,40,48,-1,48,40,42,-1,48,42,44,-1,32,34,48,-1,48,34,36,-1,48,36,38,-1,26,28,48,-1,48,28,30,-1,48,30,32,-1,20,22,48,-1,48,22,24,-1,48,24,26,-1,14,16,48,-1,48,16,18,-1,48,18,20,-1,8,10,48,-1,48,10,12,-1,48,12,14,-1,2,4,48,-1,48,4,6,-1,48,6,8,-1,
        ]
    }
}
Shape{
    appearance Appearance {
        material  Material 	{
            diffuseColor 1.0 1.0 1.0
            specularColor 0.5019607843137255 0.5019607843137255 0.5019607843137255
            ambientIntensity 1.0
            transparency 0.0
            shininess 0.5
        }
    }
    geometry IndexedFaceSet {
        ccw TRUE
        solid FALSE
        coord DEF co Coordinate {
            point [
                -0.6673 -0.9744 0.0, -0.8327 -0.9744 0.0, -0.6673 -0.9744 0.0039, -0.8327 -0.9744 0.0039, -0.8327 -1.1122 0.0906, -0.8327 -1.1909 0.0906, -0.6673 -1.1122 0.0906, -0.6673 -1.1909 0.0906, -0.6673 -1.1122 0.0039, -0.6673 -1.1909 0.0, -0.8327 -1.1122 0.0039, -0.8327 -1.1909 0.0, -0.1673 -0.9744 0.0, -0.3327 -0.9744 0.0, -0.1673 -0.9744 0.0039, -0.3327 -0.9744 0.0039, -0.3327 -1.1909 0.0906, -0.1673 -1.1909 0.0906, -0.3327 -1.1122 0.0906, -0.1673 -1.1122 0.0906, -0.3327 -1.1122 0.0039, -0.3327 -1.1909 0.0, -0.1673 -1.1909 0.0, -0.1673 -1.1122 0.0039, 0.3327 -0.9744 0.0, 0.1673 -0.9744 0.0, 0.3327 -0.9744 0.0039, 0.1673 -0.9744 0.0039, 0.1673 -1.1909 0.0906, 0.3327 -1.1909 0.0906, 0.1673 -1.1122 0.0906, 0.3327 -1.1122 0.0906, 0.1673 -1.1122 0.0039, 0.1673 -1.1909 0.0, 0.3327 -1.1909 0.0, 0.3327 -1.1122 0.0039, 0.8327 -0.9744 0.0, 0.6673 -0.9744 0.0, 0.8327 -0.9744 0.0039, 0.6673 -0.9744 0.0039, 0.6673 -1.1909 0.0906, 0.8327 -1.1909 0.0906, 0.6673 -1.1122 0.0906, 0.8327 -1.1122 0.0906, 0.6673 -1.1122 0.0039, 0.6673 -1.1909 0.0, 0.8327 -1.1909 0.0, 0.8327 -1.1122 0.0039, -0.7874 -0.059 0.0, -0.7874 -0.4271 0.0, -0.7874 -0.059 0.0039, -0.7874 -0.4271 0.0039, -0.0561 -0.4271 0.0039, 0.7874 -0.4271 0.0, 0.7874 -0.4271 0.0039, 0.7874 -0.059 0.0, 0.7874 -0.059 0.0039, 0.7874 0.0591 0.0, 0.7874 0.7973 0.0, 0.7874 0.0591 0.0039, 0.7874 0.7973 0.0039, 0.6673 1.0138 0.0039, 0.6673 1.0138 0.0, 0.666 1.0036 0.0039, 0.666 1.0036 0.0, 0.662 0.9941 0.0039, 0.662 0.9941 0.0, 0.6558 0.986 0.0039, 0.6558 0.986 0.0, 0.6476 0.9797 0.0039, 0.6476 0.9797 0.0, 0.6381 0.9758 0.0039, 0.6381 0.9758 0.0, 0.628 0.9745 0.0039, 0.628 0.9745 0.0, 0.372 0.9745 0.0, 0.372 0.9745 0.0039, 0.3619 0.9758 0.0039, 0.3619 0.9758 0.0, 0.3524 0.9797 0.0039, 0.3524 0.9797 0.0, 0.3442 0.986 0.0039, 0.3442 0.986 0.0, 0.338 0.9941 0.0039, 0.338 0.9941 0.0, 0.334 1.0036 0.0039, 0.334 1.0036 0.0, 0.3327 1.0138 0.0039, 0.3327 1.0138 0.0, 0.1673 1.0138 0.0039, 0.1673 1.0138 0.0, 0.1663 1.0051 0.0039, 0.1663 1.0051 0.0, 0.1634 0.9967 0.0039, 0.1634 0.9967 0.0, 0.1587 0.9893 0.0039, 0.1587 0.9893 0.0, 0.1525 0.983 0.0039, 0.1525 0.983 0.0, 0.145 0.9784 0.0039, 0.145 0.9784 0.0, 0.1367 0.9754 0.0039, 0.1367 0.9754 0.0, 0.128 0.9745 0.0039, 0.128 0.9745 0.0, -0.128 0.9745 0.0, -0.128 0.9745 0.0039, -0.1367 0.9754 0.0039, -0.1367 0.9754 0.0, -0.145 0.9784 0.0039, -0.145 0.9784 0.0, -0.1525 0.983 0.0039, -0.1525 0.983 0.0, -0.1587 0.9893 0.0039, -0.1587 0.9893 0.0, -0.1634 0.9967 0.0039, -0.1634 0.9967 0.0, -0.1663 1.0051 0.0039, -0.1663 1.0051 0.0, -0.1673 1.0138 0.0039, -0.1673 1.0138 0.0, -0.3327 1.0138 0.0039, -0.3327 1.0138 0.0, -0.334 1.0036 0.0039, -0.334 1.0036 0.0, -0.338 0.9941 0.0039, -0.338 0.9941 0.0, -0.3442 0.986 0.0039, -0.3442 0.986 0.0, -0.3524 0.9797 0.0039, -0.3524 0.9797 0.0, -0.3619 0.9758 0.0039, -0.3619 0.9758 0.0, -0.372 0.9745 0.0039, -0.372 0.9745 0.0, -0.628 0.9745 0.0, -0.628 0.9745 0.0039, -0.6381 0.9758 0.0039, -0.6381 0.9758 0.0, -0.6476 0.9797 0.0039, -0.6476 0.9797 0.0, -0.6558 0.986 0.0039, -0.6558 0.986 0.0, -0.662 0.9941 0.0039, -0.662 0.9941 0.0, -0.666 1.0036 0.0039, -0.666 1.0036 0.0, -0.6673 1.0138 0.0039, -0.6673 1.0138 0.0, -0.7874 0.7973 0.0, -0.7874 0.0591 0.0, -0.7874 0.7973 0.0039, -0.7874 0.0591 0.0039, 1.0039 -0.059 0.0906, 1.0039 0.0591 0.0906, 0.9941 -0.059 0.0906, 0.9941 0.0591 0.0906, 0.8327 1.191 0.0906, 0.6673 1.191 0.0906, 0.8327 1.1123 0.0906, 0.6673 1.1123 0.0906, 0.3327 1.191 0.0906, 0.1673 1.191 0.0906, 0.3327 1.1123 0.0906, 0.1673 1.1123 0.0906, -0.1673 1.191 0.0906, -0.3327 1.191 0.0906, -0.1673 1.1123 0.0906, -0.3327 1.1123 0.0906, -0.6673 1.191 0.0906, -0.8327 1.191 0.0906, -0.6673 1.1123 0.0906, -0.8327 1.1123 0.0906, -1.0039 0.0591 0.0906, -1.0039 -0.059 0.0906, -0.9941 0.0591 0.0906, -0.9941 -0.059 0.0906, 0.9941 -0.059 0.0039, 1.0039 -0.059 0.0, 1.0039 0.0591 0.0, 0.9941 0.0591 0.0039, 0.8327 0.8426 0.0039, 0.8327 0.8426 0.0, 0.8327 1.1123 0.0039, 0.8327 1.191 0.0, 0.6673 1.191 0.0, 0.6673 1.1123 0.0039, 0.3327 1.1123 0.0039, 0.3327 1.191 0.0, 0.1673 1.191 0.0, 0.1673 1.1123 0.0039, -0.1673 1.1123 0.0039, -0.1673 1.191 0.0, -0.3327 1.191 0.0, -0.3327 1.1123 0.0039, -0.6673 1.1123 0.0039, -0.6673 1.191 0.0, -0.8327 1.191 0.0, -0.8327 0.8426 0.0, -0.8327 0.8426 0.0039, -0.8327 1.1123 0.0039, -0.9941 0.0591 0.0039, -1.0039 0.0591 0.0, -1.0039 -0.059 0.0, -0.9941 -0.059 0.0039, 0.8007 0.8293 0.0, 0.7935 0.8199 0.0, 0.821 0.841 0.0, 0.81 0.8365 0.0, 0.7889 0.809 0.0, -0.7935 0.8199 0.0, -0.8007 0.8293 0.0, -0.81 0.8365 0.0, -0.821 0.841 0.0, -0.7889 0.809 0.0, -0.821 0.841 0.0039, -0.81 0.8365 0.0039, -0.8007 0.8293 0.0039, -0.7935 0.8199 0.0039, -0.7889 0.809 0.0039, 0.7889 0.809 0.0039, 0.7935 0.8199 0.0039, 0.8007 0.8293 0.0039, 0.81 0.8365 0.0039, 0.821 0.841 0.0039
            ]
        }
        coordIndex [
            0,1,2,-1,2,1,3,-1,4,5,6,-1,6,5,7,-1,0,2,8,-1,6,7,8,-1,8,7,9,-1,8,9,0,-1,3,1,10,-1,10,1,11,-1,10,11,4,-1,4,11,5,-1,9,7,11,-1,11,7,5,-1,11,1,9,-1,9,1,0,-1,12,13,14,-1,14,13,15,-1,16,17,18,-1,18,17,19,-1,15,13,20,-1,20,13,21,-1,20,21,18,-1,18,21,16,-1,22,17,21,-1,21,17,16,-1,12,14,23,-1,19,17,23,-1,23,17,22,-1,23,22,12,-1,22,21,12,-1,12,21,13,-1,24,25,26,-1,26,25,27,-1,28,29,30,-1,30,29,31,-1,27,25,32,-1,32,25,33,-1,32,33,30,-1,30,33,28,-1,34,29,33,-1,33,29,28,-1,24,26,35,-1,31,29,35,-1,35,29,34,-1,35,34,24,-1,34,33,24,-1,24,33,25,-1,36,37,38,-1,38,37,39,-1,40,41,42,-1,42,41,43,-1,39,37,44,-1,44,37,45,-1,44,45,42,-1,42,45,40,-1,46,41,45,-1,45,41,40,-1,36,38,47,-1,43,41,47,-1,47,41,46,-1,47,46,36,-1,46,45,36,-1,36,45,37,-1,48,49,50,-1,50,49,51,-1,51,49,52,-1,52,49,53,-1,52,53,54,-1,53,55,54,-1,54,55,56,-1,57,58,59,-1,59,58,60,-1,61,62,63,-1,63,62,64,-1,63,64,65,-1,65,64,66,-1,65,66,67,-1,67,66,68,-1,67,68,69,-1,69,68,70,-1,69,70,71,-1,71,70,72,-1,71,72,73,-1,73,72,74,-1,74,75,73,-1,73,75,76,-1,76,75,77,-1,77,75,78,-1,77,78,79,-1,79,78,80,-1,79,80,81,-1,81,80,82,-1,81,82,83,-1,83,82,84,-1,83,84,85,-1,85,84,86,-1,85,86,87,-1,87,86,88,-1,89,90,91,-1,91,90,92,-1,91,92,93,-1,93,92,94,-1,93,94,95,-1,95,94,96,-1,95,96,97,-1,97,96,98,-1,97,98,99,-1,99,98,100,-1,99,100,101,-1,101,100,102,-1,101,102,103,-1,103,102,104,-1,104,105,103,-1,103,105,106,-1,106,105,107,-1,107,105,108,-1,107,108,109,-1,109,108,110,-1,109,110,111,-1,111,110,112,-1,111,112,113,-1,113,112,114,-1,113,114,115,-1,115,114,116,-1,115,116,117,-1,117,116,118,-1,117,118,119,-1,119,118,120,-1,121,122,123,-1,123,122,124,-1,123,124,125,-1,125,124,126,-1,125,126,127,-1,127,126,128,-1,127,128,129,-1,129,128,130,-1,129,130,131,-1,131,130,132,-1,131,132,133,-1,133,132,134,-1,134,135,133,-1,133,135,136,-1,136,135,137,-1,137,135,138,-1,137,138,139,-1,139,138,140,-1,139,140,141,-1,141,140,142,-1,141,142,143,-1,143,142,144,-1,143,144,145,-1,145,144,146,-1,145,146,147,-1,147,146,148,-1,149,150,151,-1,151,150,152,-1,153,154,155,-1,155,154,156,-1,157,158,159,-1,159,158,160,-1,161,162,163,-1,163,162,164,-1,165,166,167,-1,167,166,168,-1,169,170,171,-1,171,170,172,-1,173,174,175,-1,175,174,176,-1,56,55,177,-1,177,55,178,-1,177,178,155,-1,155,178,153,-1,179,154,178,-1,178,154,153,-1,156,154,180,-1,180,154,179,-1,180,179,59,-1,59,179,57,-1,181,182,183,-1,183,182,184,-1,183,184,159,-1,159,184,157,-1,185,158,184,-1,184,158,157,-1,62,61,186,-1,160,158,186,-1,186,158,185,-1,186,185,62,-1,87,88,187,-1,187,88,188,-1,187,188,163,-1,163,188,161,-1,189,162,188,-1,188,162,161,-1,90,89,190,-1,164,162,190,-1,190,162,189,-1,190,189,90,-1,119,120,191,-1,191,120,192,-1,191,192,167,-1,167,192,165,-1,193,166,192,-1,192,166,165,-1,122,121,194,-1,168,166,194,-1,194,166,193,-1,194,193,122,-1,147,148,195,-1,195,148,196,-1,195,196,171,-1,171,196,169,-1,197,170,196,-1,196,170,169,-1,198,199,200,-1,172,170,200,-1,200,170,197,-1,200,197,198,-1,152,150,201,-1,201,150,202,-1,201,202,175,-1,175,202,173,-1,203,174,202,-1,202,174,173,-1,176,174,204,-1,204,174,203,-1,204,203,50,-1,50,203,48,-1,55,53,49,-1,203,202,48,-1,48,202,150,-1,179,178,57,-1,57,178,55,-1,70,205,206,-1,182,207,66,-1,66,207,208,-1,198,197,196,-1,185,184,62,-1,62,184,182,-1,62,182,64,-1,64,182,66,-1,105,104,150,-1,124,114,112,-1,55,49,57,-1,57,49,78,-1,57,78,75,-1,206,209,70,-1,70,209,58,-1,70,58,72,-1,72,58,57,-1,72,57,74,-1,74,57,75,-1,205,70,208,-1,208,70,68,-1,208,68,66,-1,102,86,84,-1,138,210,140,-1,140,210,211,-1,140,211,142,-1,142,211,212,-1,142,212,144,-1,144,212,213,-1,144,213,146,-1,146,213,198,-1,146,198,148,-1,148,198,196,-1,112,110,124,-1,124,110,108,-1,124,108,126,-1,126,108,105,-1,126,105,128,-1,128,105,150,-1,128,150,130,-1,130,150,149,-1,130,149,132,-1,132,149,214,-1,132,214,134,-1,134,214,210,-1,134,210,135,-1,135,210,138,-1,104,102,150,-1,150,102,84,-1,150,84,48,-1,48,84,82,-1,48,82,49,-1,49,82,80,-1,49,80,78,-1,102,100,86,-1,86,100,98,-1,86,98,96,-1,122,193,192,-1,189,188,90,-1,90,188,88,-1,90,88,92,-1,92,88,86,-1,92,86,94,-1,94,86,96,-1,192,120,122,-1,122,120,118,-1,122,118,124,-1,124,118,116,-1,124,116,114,-1,199,198,215,-1,215,198,213,-1,215,213,216,-1,216,213,212,-1,216,212,217,-1,217,212,211,-1,217,211,218,-1,218,211,210,-1,218,210,219,-1,219,210,214,-1,219,214,151,-1,151,214,149,-1,60,58,220,-1,220,58,209,-1,220,209,221,-1,221,209,206,-1,221,206,222,-1,222,206,205,-1,222,205,223,-1,223,205,208,-1,223,208,224,-1,224,208,207,-1,224,207,181,-1,181,207,182,-1,
        ]
    }
}
Shape{
    appearance Appearance {
        material  Material 	{
            diffuseColor 0.0 0.0 0.0
            specularColor 0.0 0.0 0.0
            ambientIntensity 0.0
            transparency 0.0
            shininess 0.5
        }
    }
    geometry IndexedFaceSet {
        ccw TRUE
        solid FALSE
        coord DEF co Coordinate {
            point [
                -0.1733 -0.6142 0.0043, -0.204 -0.6929 0.0043, -0.1733 -0.6142 0.0039, -0.204 -0.6929 0.0039, -0.1925 -0.6929 0.0043, -0.1925 -0.6929 0.0039, -0.1845 -0.6708 0.0043, -0.1845 -0.6708 0.0039, -0.152 -0.6708 0.0043, -0.152 -0.6708 0.0039, -0.1445 -0.6929 0.0043, -0.1445 -0.6929 0.0039, -0.1329 -0.6929 0.0043, -0.1329 -0.6929 0.0039, -0.1627 -0.6142 0.0043, -0.1627 -0.6142 0.0039, -0.1546 -0.6622 0.0043, -0.181 -0.6622 0.0043, -0.1664 -0.6293 0.0043, -0.1671 -0.6266 0.0043, -0.1676 -0.6238 0.0043, -0.1679 -0.6238 0.0043, -0.1684 -0.6266 0.0043, -0.1691 -0.6293 0.0043, -0.1546 -0.6622 0.0039, -0.181 -0.6622 0.0039, -0.1664 -0.6293 0.0039, -0.1671 -0.6266 0.0039, -0.1676 -0.6238 0.0039, -0.1679 -0.6238 0.0039, -0.1684 -0.6266 0.0039, -0.1691 -0.6293 0.0039, -0.0852 -0.6929 0.0043, -0.0638 -0.6929 0.0043, -0.0852 -0.6929 0.0039, -0.0638 -0.6929 0.0039, -0.0638 -0.6142 0.0043, -0.0638 -0.6142 0.0039, -0.086 -0.6142 0.0043, -0.086 -0.6142 0.0039, -0.1272 -0.6525 0.0043, -0.1272 -0.6525 0.0039, -0.1266 -0.6451 0.0039, -0.1266 -0.6451 0.0043, -0.1245 -0.6374 0.0039, -0.1245 -0.6374 0.0043, -0.1208 -0.6306 0.0039, -0.1208 -0.6306 0.0043, -0.1153 -0.6244 0.0039, -0.1153 -0.6244 0.0043, -0.1152 -0.6244 0.0039, -0.1152 -0.6244 0.0043, -0.1066 -0.6186 0.0039, -0.1066 -0.6186 0.0043, -0.0974 -0.6154 0.0039, -0.0974 -0.6154 0.0043, -0.095 -0.6921 0.0039, -0.095 -0.6921 0.0043, -0.104 -0.6894 0.0039, -0.104 -0.6894 0.0043, -0.1123 -0.6846 0.0039, -0.1123 -0.6846 0.0043, -0.1187 -0.6784 0.0039, -0.1187 -0.6784 0.0043, -0.1233 -0.6713 0.0039, -0.1233 -0.6713 0.0043, -0.1261 -0.6631 0.0039, -0.1261 -0.6631 0.0043, -0.1114 -0.6339 0.0043, -0.1076 -0.6298 0.0043, -0.1018 -0.6261 0.0043, -0.0953 -0.6238 0.0043, -0.086 -0.6228 0.0043, -0.0744 -0.6228 0.0043, -0.0744 -0.6843 0.0043, -0.0855 -0.6843 0.0043, -0.0939 -0.6835 0.0043, -0.1005 -0.6814 0.0043, -0.1059 -0.6782 0.0043, -0.1103 -0.6739 0.0043, -0.1136 -0.6684 0.0043, -0.1159 -0.661 0.0043, -0.1166 -0.6528 0.0043, -0.116 -0.6449 0.0043, -0.1141 -0.6387 0.0043, -0.086 -0.6228 0.0039, -0.0744 -0.6228 0.0039, -0.0953 -0.6238 0.0039, -0.1018 -0.6261 0.0039, -0.1076 -0.6298 0.0039, -0.1114 -0.6339 0.0039, -0.1141 -0.6387 0.0039, -0.116 -0.6449 0.0039, -0.1166 -0.6528 0.0039, -0.1159 -0.661 0.0039, -0.1136 -0.6684 0.0039, -0.1103 -0.6739 0.0039, -0.1059 -0.6782 0.0039, -0.1005 -0.6814 0.0039, -0.0939 -0.6835 0.0039, -0.0855 -0.6843 0.0039, -0.0744 -0.6843 0.0039, -0.0484 -0.6843 0.0043, -0.0484 -0.6929 0.0043, -0.0484 -0.6843 0.0039, -0.0484 -0.6929 0.0039, -0.0062 -0.6929 0.0043, -0.0062 -0.6929 0.0039, -0.0062 -0.6142 0.0043, -0.0062 -0.6142 0.0039, -0.0465 -0.6142 0.0043, -0.0465 -0.6142 0.0039, -0.0465 -0.6228 0.0043, -0.0465 -0.6228 0.0039, -0.0168 -0.6228 0.0043, -0.0168 -0.6228 0.0039, -0.0168 -0.6487 0.0043, -0.0168 -0.6487 0.0039, -0.0446 -0.6487 0.0043, -0.0446 -0.6487 0.0039, -0.0446 -0.6574 0.0043, -0.0446 -0.6574 0.0039, -0.0168 -0.6574 0.0043, -0.0168 -0.6574 0.0039, -0.0168 -0.6843 0.0043, -0.0168 -0.6843 0.0039, 0.0092 -0.6802 0.0043, 0.0092 -0.6888 0.0043, 0.0092 -0.6802 0.0039, 0.0092 -0.6888 0.0039, 0.0176 -0.6923 0.0043, 0.0308 -0.6939 0.0043, 0.0308 -0.6939 0.0039, 0.0287 -0.6938 0.0039, 0.0287 -0.6938 0.0043, 0.0255 -0.6934 0.0039, 0.0176 -0.6923 0.0039, 0.0355 -0.6934 0.0039, 0.0405 -0.6929 0.0043, 0.0405 -0.6929 0.0039, 0.0482 -0.6902 0.0043, 0.0482 -0.6902 0.0039, 0.0545 -0.6862 0.0043, 0.0545 -0.6862 0.0039, 0.0604 -0.68 0.0043, 0.0604 -0.68 0.0039, 0.0646 -0.6725 0.0043, 0.0646 -0.6725 0.0039, 0.067 -0.6641 0.0043, 0.067 -0.6641 0.0039, 0.0677 -0.655 0.0043, 0.0677 -0.655 0.0039, 0.0277 -0.6132 0.0043, 0.0277 -0.6132 0.0039, 0.0356 -0.6139 0.0039, 0.0356 -0.6139 0.0043, 0.0444 -0.6164 0.0039, 0.0444 -0.6164 0.0043, 0.0519 -0.6207 0.0039, 0.0519 -0.6207 0.0043, 0.059 -0.6275 0.0039, 0.059 -0.6275 0.0043, 0.0636 -0.6349 0.0039, 0.0636 -0.6349 0.0043, 0.0666 -0.6438 0.0039, 0.0666 -0.6438 0.0043, 0.0092 -0.6163 0.0043, 0.0092 -0.6163 0.0039, 0.0183 -0.6139 0.0039, 0.0183 -0.6139 0.0043, 0.0092 -0.6269 0.0043, 0.0092 -0.6269 0.0039, 0.0276 -0.6219 0.0043, 0.0276 -0.6219 0.0039, 0.018 -0.6231 0.0039, 0.018 -0.6231 0.0043, 0.0572 -0.6544 0.0043, 0.0572 -0.6544 0.0039, 0.0568 -0.6483 0.0039, 0.0568 -0.6483 0.0043, 0.0547 -0.6398 0.0039, 0.0547 -0.6398 0.0043, 0.0515 -0.6337 0.0039, 0.0515 -0.6337 0.0043, 0.0467 -0.6285 0.0039, 0.0467 -0.6285 0.0043, 0.0413 -0.6248 0.0039, 0.0413 -0.6248 0.0043, 0.0354 -0.6227 0.0039, 0.0354 -0.6227 0.0043, 0.0294 -0.6852 0.0043, 0.0294 -0.6852 0.0039, 0.0367 -0.6844 0.0039, 0.0367 -0.6844 0.0043, 0.0425 -0.6823 0.0039, 0.0425 -0.6823 0.0043, 0.0473 -0.679 0.0039, 0.0473 -0.679 0.0043, 0.051 -0.6751 0.0039, 0.051 -0.6751 0.0043, 0.0542 -0.6697 0.0039, 0.0542 -0.6697 0.0043, 0.0564 -0.6629 0.0039, 0.0564 -0.6629 0.0043, 0.0106 -0.681 0.0039, 0.0106 -0.681 0.0043, 0.0189 -0.6841 0.0039, 0.0189 -0.6841 0.0043, 0.0745 -0.6843 0.0043, 0.0745 -0.6929 0.0043, 0.0745 -0.6843 0.0039, 0.0745 -0.6929 0.0039, 0.1148 -0.6929 0.0043, 0.1148 -0.6929 0.0039, 0.1148 -0.6142 0.0043, 0.1148 -0.6142 0.0039, 0.1042 -0.6142 0.0043, 0.1042 -0.6142 0.0039, 0.1042 -0.6843 0.0043, 0.1042 -0.6843 0.0039
            ]
        }
        coordIndex [
            0,1,2,-1,2,1,3,-1,1,4,3,-1,3,4,5,-1,4,6,5,-1,5,6,7,-1,6,8,7,-1,7,8,9,-1,8,10,9,-1,9,10,11,-1,10,12,11,-1,11,12,13,-1,12,14,13,-1,13,14,15,-1,14,0,15,-1,15,0,2,-1,16,8,17,-1,17,8,6,-1,18,14,16,-1,16,14,12,-1,16,12,8,-1,8,12,10,-1,18,19,14,-1,14,19,20,-1,14,20,0,-1,0,20,21,-1,0,21,22,-1,22,23,0,-1,0,23,17,-1,0,17,1,-1,1,17,6,-1,1,6,4,-1,16,17,24,-1,24,17,25,-1,18,16,26,-1,26,16,24,-1,18,26,27,-1,18,27,19,-1,19,27,28,-1,19,28,20,-1,21,20,29,-1,29,20,28,-1,21,29,30,-1,21,30,22,-1,22,30,31,-1,22,31,23,-1,17,23,25,-1,25,23,31,-1,32,33,34,-1,34,33,35,-1,33,36,35,-1,35,36,37,-1,36,38,37,-1,37,38,39,-1,40,41,42,-1,40,42,43,-1,43,42,44,-1,43,44,45,-1,45,44,46,-1,45,46,47,-1,47,46,48,-1,47,48,49,-1,49,48,50,-1,49,50,51,-1,51,50,52,-1,51,52,53,-1,53,52,54,-1,53,54,55,-1,55,54,39,-1,55,39,38,-1,32,34,56,-1,32,56,57,-1,57,56,58,-1,57,58,59,-1,59,58,60,-1,59,60,61,-1,61,60,62,-1,61,62,63,-1,63,62,64,-1,63,64,65,-1,65,64,66,-1,65,66,67,-1,67,66,41,-1,67,41,40,-1,45,47,68,-1,68,47,49,-1,68,49,69,-1,69,49,51,-1,69,51,70,-1,70,51,53,-1,70,53,71,-1,71,53,55,-1,71,55,72,-1,72,55,38,-1,72,38,73,-1,73,38,36,-1,73,36,74,-1,74,36,33,-1,74,33,75,-1,75,33,32,-1,75,32,76,-1,76,32,57,-1,76,57,77,-1,77,57,59,-1,77,59,78,-1,78,59,61,-1,78,61,79,-1,79,61,63,-1,79,63,80,-1,80,63,65,-1,80,65,81,-1,81,65,67,-1,81,67,82,-1,82,67,40,-1,82,40,83,-1,83,40,43,-1,83,43,84,-1,84,43,45,-1,84,45,68,-1,72,73,85,-1,85,73,86,-1,72,85,87,-1,72,87,71,-1,71,87,88,-1,71,88,70,-1,70,88,89,-1,70,89,69,-1,69,89,90,-1,69,90,68,-1,68,90,91,-1,68,91,84,-1,84,91,92,-1,84,92,83,-1,83,92,93,-1,83,93,82,-1,82,93,94,-1,82,94,81,-1,81,94,95,-1,81,95,80,-1,80,95,96,-1,80,96,79,-1,79,96,97,-1,79,97,78,-1,78,97,98,-1,78,98,77,-1,77,98,99,-1,77,99,76,-1,76,99,100,-1,76,100,75,-1,74,75,101,-1,101,75,100,-1,73,74,86,-1,86,74,101,-1,102,103,104,-1,104,103,105,-1,103,106,105,-1,105,106,107,-1,106,108,107,-1,107,108,109,-1,108,110,109,-1,109,110,111,-1,110,112,111,-1,111,112,113,-1,112,114,113,-1,113,114,115,-1,114,116,115,-1,115,116,117,-1,116,118,117,-1,117,118,119,-1,118,120,119,-1,119,120,121,-1,120,122,121,-1,121,122,123,-1,122,124,123,-1,123,124,125,-1,124,102,125,-1,125,102,104,-1,106,103,102,-1,102,124,106,-1,106,124,122,-1,106,122,108,-1,112,110,114,-1,114,110,108,-1,114,108,116,-1,116,108,122,-1,116,122,118,-1,118,122,120,-1,126,127,128,-1,128,127,129,-1,129,127,130,-1,131,132,133,-1,131,133,134,-1,134,133,135,-1,134,135,130,-1,130,135,136,-1,130,136,129,-1,132,131,137,-1,137,131,138,-1,137,138,139,-1,139,138,140,-1,139,140,141,-1,141,140,142,-1,141,142,143,-1,143,142,144,-1,143,144,145,-1,145,144,146,-1,145,146,147,-1,147,146,148,-1,147,148,149,-1,149,148,150,-1,149,150,151,-1,152,153,154,-1,152,154,155,-1,155,154,156,-1,155,156,157,-1,157,156,158,-1,157,158,159,-1,159,158,160,-1,159,160,161,-1,161,160,162,-1,161,162,163,-1,163,162,164,-1,163,164,165,-1,165,164,151,-1,165,151,150,-1,166,167,168,-1,166,168,169,-1,169,168,153,-1,169,153,152,-1,166,170,167,-1,167,170,171,-1,172,173,174,-1,172,174,175,-1,175,174,171,-1,175,171,170,-1,176,177,178,-1,176,178,179,-1,179,178,180,-1,179,180,181,-1,181,180,182,-1,181,182,183,-1,183,182,184,-1,183,184,185,-1,185,184,186,-1,185,186,187,-1,187,186,188,-1,187,188,189,-1,189,188,173,-1,189,173,172,-1,190,191,192,-1,190,192,193,-1,193,192,194,-1,193,194,195,-1,195,194,196,-1,195,196,197,-1,197,196,198,-1,197,198,199,-1,199,198,200,-1,199,200,201,-1,201,200,202,-1,201,202,203,-1,203,202,177,-1,203,177,176,-1,126,128,204,-1,126,204,205,-1,205,204,206,-1,205,206,207,-1,207,206,191,-1,207,191,190,-1,193,131,190,-1,190,131,134,-1,190,134,207,-1,207,134,130,-1,207,130,205,-1,205,130,127,-1,205,127,126,-1,170,166,175,-1,175,166,169,-1,175,169,172,-1,172,169,152,-1,172,152,189,-1,189,152,155,-1,189,155,187,-1,187,155,157,-1,187,157,185,-1,185,157,159,-1,185,159,183,-1,183,159,161,-1,183,161,181,-1,181,161,163,-1,181,163,179,-1,179,163,165,-1,179,165,176,-1,176,165,150,-1,176,150,203,-1,203,150,148,-1,203,148,201,-1,201,148,146,-1,201,146,199,-1,199,146,144,-1,199,144,197,-1,197,144,142,-1,197,142,195,-1,195,142,140,-1,195,140,193,-1,193,140,138,-1,193,138,131,-1,208,209,210,-1,210,209,211,-1,209,212,211,-1,211,212,213,-1,212,214,213,-1,213,214,215,-1,214,216,215,-1,215,216,217,-1,216,218,217,-1,217,218,219,-1,218,208,219,-1,219,208,210,-1,216,214,218,-1,218,214,212,-1,218,212,208,-1,208,212,209,-1,
        ]
    }
}
Shape{
    appearance Appearance {
        material  Material 	{
            diffuseColor 0.25098039215686274 0.25098039215686274 0.25098039215686274
            specularColor 0.12549019607843137 0.12549019607843137 0.12549019607843137
            ambientIntensity 0.251
            transparency 0.0
            shininess 0.5
        }
    }
    geometry IndexedFaceSet {
        ccw TRUE
        solid FALSE
        coord DEF co Coordinate {
            point [
                -0.1546 -0.6622 0.0039, -0.181 -0.6622 0.0039, -0.1664 -0.6293 0.0039, -0.1691 -0.6293 0.0039, -0.1671 -0.6266 0.0039, -0.1684 -0.6266 0.0039, -0.1676 -0.6238 0.0039, -0.1679 -0.6238 0.0039, -0.0744 -0.6228 0.0039, -0.0744 -0.6843 0.0039, -0.086 -0.6228 0.0039, -0.0855 -0.6843 0.0039, -0.0939 -0.6835 0.0039, -0.1166 -0.6528 0.0039, -0.116 -0.6449 0.0039, -0.1141 -0.6387 0.0039, -0.0953 -0.6238 0.0039, -0.1005 -0.6814 0.0039, -0.1059 -0.6782 0.0039, -0.1103 -0.6739 0.0039, -0.1136 -0.6684 0.0039, -0.1159 -0.661 0.0039, -0.1114 -0.6339 0.0039, -0.1076 -0.6298 0.0039, -0.1018 -0.6261 0.0039, -0.9941 -1.0731 0.0906, -0.9941 -1.0728 0.0906, -0.9941 -1.0728 0.0039, -0.9927 -1.083 0.0911, -0.9928 -1.083 0.0039, -0.9927 -1.0832 0.0911, -0.9888 -1.0925 0.0039, -0.9888 -1.0925 0.0914, -0.9888 -1.0926 0.0914, -0.9826 -1.1006 0.0039, -0.9826 -1.1006 0.0915, -0.9745 -1.1068 0.0914, -0.9744 -1.1069 0.0039, -0.9744 -1.1069 0.0914, -0.9651 -1.1108 0.0911, -0.9649 -1.1108 0.0039, -0.9649 -1.1108 0.0911, -0.9547 -1.1122 0.0039, -0.9547 -1.1122 0.0906, -0.955 -1.1122 0.0906, -0.955 1.1123 0.0906, -0.9547 1.1123 0.0906, -0.9547 1.1123 0.0039, -0.9649 1.1109 0.0911, -0.9649 1.1109 0.0039, -0.9651 1.1109 0.0911, -0.9744 1.107 0.0039, -0.9744 1.107 0.0914, -0.9745 1.1069 0.0914, -0.9826 1.1007 0.0039, -0.9826 1.1007 0.0915, -0.9888 1.0927 0.0914, -0.9888 1.0926 0.0039, -0.9888 1.0926 0.0914, -0.9927 1.0833 0.0911, -0.9928 1.0831 0.0039, -0.9927 1.0831 0.0911, -0.9941 1.0729 0.0039, -0.9941 1.0729 0.0906, -0.9941 1.0732 0.0906, -0.9292 -1.0748 0.3838, -0.9191 -1.0763 0.3828, -0.9292 -1.0748 0.3838, -0.9385 -1.0709 0.3845, -0.9386 -1.0708 0.3845, -0.9466 -1.0646 0.3847, -0.9528 -1.0566 0.3845, -0.9528 -1.0566 0.3845, -0.9567 -1.0473 0.3838, -0.9568 -1.0472 0.3838, -0.9582 -1.0372 0.3828, -0.9582 1.0373 0.3828, -0.956 1.0373 0.3917, -0.956 -1.0372 0.3917, -0.9559 1.0373 0.3919, -0.9559 -1.0372 0.3919, -0.9517 1.0373 0.4002, -0.9517 -1.0372 0.4002, -0.9515 1.0373 0.4003, -0.9515 -1.0372 0.4003, -0.9454 1.0373 0.4073, -0.9454 -1.0372 0.4073, -0.9452 1.0373 0.4074, -0.9452 -1.0372 0.4074, -0.9375 1.0373 0.4128, -0.9375 -1.0372 0.4128, -0.9374 1.0373 0.4128, -0.9374 -1.0372 0.4128, -0.9286 1.0373 0.4162, -0.9286 -1.0372 0.4162, -0.9286 1.0373 0.4162, -0.9286 -1.0372 0.4162, -0.9191 -1.0372 0.4173, -0.9191 1.0373 0.4173, -0.9568 1.0473 0.3838, -0.9567 1.0474 0.3838, -0.9528 1.0567 0.3845, -0.9528 1.0567 0.3845, -0.9466 1.0647 0.3847, -0.9386 1.0709 0.3845, -0.9385 1.071 0.3845, -0.9292 1.0749 0.3838, -0.9292 1.0749 0.3838, -0.9191 1.0764 0.3828, 0.955 -1.1122 0.0906, 0.9547 -1.1122 0.0906, 0.9547 -1.1122 0.0039, 0.9649 -1.1108 0.0911, 0.9649 -1.1108 0.0039, 0.9651 -1.1108 0.0911, 0.9744 -1.1069 0.0039, 0.9744 -1.1069 0.0914, 0.9745 -1.1068 0.0914, 0.9826 -1.1006 0.0039, 0.9826 -1.1006 0.0915, 0.9888 -1.0926 0.0914, 0.9888 -1.0925 0.0039, 0.9888 -1.0925 0.0914, 0.9927 -1.0832 0.0911, 0.9928 -1.083 0.0039, 0.9927 -1.083 0.0911, 0.9941 -1.0728 0.0039, 0.9941 -1.0728 0.0906, 0.9941 -1.0731 0.0906, -0.9191 -1.0696 0.4003, -0.9191 -1.0634 0.4073, -0.9259 -1.0625 0.4073, -0.9239 -1.055 0.4128, -0.9216 -1.0463 0.4162, -0.9239 -1.0454 0.4162, -0.9273 -1.0419 0.4162, -0.9258 -1.0439 0.4162, -0.9283 -1.0397 0.4162, -0.9191 -1.0466 0.4162, -0.9287 -1.0728 0.3917, -0.9376 -1.0692 0.3917, -0.9452 -1.0633 0.3917, -0.9511 -1.0556 0.3917, -0.9548 -1.0467 0.3917, -0.9191 -1.0633 0.4074, -0.9191 -1.0556 0.4128, -0.9191 -1.0555 0.4128, -0.9191 -1.0467 0.4162, -0.9283 -1.0531 0.4128, -0.9321 -1.0502 0.4128, -0.9351 -1.0464 0.4128, -0.9369 -1.042 0.4128, -0.9322 -1.0599 0.4073, -0.9377 -1.0557 0.4073, -0.9418 -1.0503 0.4073, -0.9445 -1.044 0.4073, -0.9191 -1.074 0.3919, -0.9191 -1.0697 0.4002, -0.9276 -1.0686 0.4002, -0.9354 -1.0654 0.4002, -0.9421 -1.0602 0.4002, -0.9473 -1.0535 0.4002, -0.9505 -1.0456 0.4002, -0.9191 -1.0741 0.3917, -0.9445 1.0441 0.4073, -0.9369 1.0421 0.4128, -0.9283 1.0398 0.4162, -0.9273 1.042 0.4162, -0.9239 1.0455 0.4162, -0.9258 1.044 0.4162, -0.9216 1.0464 0.4162, -0.9548 1.0469 0.3917, -0.9511 1.0557 0.3917, -0.9452 1.0634 0.3917, -0.9376 1.0693 0.3917, -0.9287 1.0729 0.3917, -0.9191 1.0742 0.3917, -0.9191 1.0467 0.4162, -0.9351 1.0465 0.4128, -0.9321 1.0503 0.4128, -0.9283 1.0532 0.4128, -0.9239 1.0551 0.4128, -0.9191 1.0468 0.4162, -0.9191 1.0556 0.4128, -0.9191 1.0557 0.4128, -0.9191 1.0634 0.4074, -0.9418 1.0504 0.4073, -0.9377 1.0558 0.4073, -0.9322 1.06 0.4073, -0.9259 1.0626 0.4073, -0.9505 1.0457 0.4002, -0.9473 1.0536 0.4002, -0.9421 1.0603 0.4002, -0.9354 1.0655 0.4002, -0.9276 1.0687 0.4002, -0.9191 1.0635 0.4073, -0.9191 1.0697 0.4003, -0.9191 1.0698 0.4002, -0.9191 1.0741 0.3919, 0.9941 1.0732 0.0906, 0.9941 1.0729 0.0906, 0.9941 1.0729 0.0039, 0.9929 1.0816 0.091, 0.9931 1.0816 0.0039, 0.9927 1.0833 0.0911, 0.9902 1.09 0.0039, 0.9899 1.0899 0.0913, 0.9888 1.0927 0.0914, 0.9855 1.0974 0.0039, 0.9852 1.0972 0.0915, 0.9826 1.1007 0.0915, 0.9793 1.1037 0.0039, 0.9791 1.1034 0.0915, 0.9745 1.1069 0.0914, 0.9718 1.1084 0.0039, 0.9717 1.1081 0.0913, 0.9651 1.1109 0.0911, 0.9635 1.1113 0.0039, 0.9635 1.1111 0.091, 0.9547 1.1123 0.0039, 0.9547 1.1123 0.0906, 0.955 1.1123 0.0906, 0.9568 -1.0472 0.3838, 0.9582 -1.0372 0.3828, 0.9567 -1.0473 0.3838, 0.9528 -1.0566 0.3845, 0.9528 -1.0566 0.3845, 0.9466 -1.0646 0.3847, 0.9386 -1.0708 0.3845, 0.9385 -1.0709 0.3845, 0.9292 -1.0748 0.3838, 0.9292 -1.0748 0.3838, 0.9191 -1.0763 0.3828, 0.9191 -1.0741 0.3917, 0.9191 -1.074 0.3919, 0.9191 -1.0697 0.4002, 0.9191 -1.0696 0.4003, 0.9191 -1.0634 0.4073, 0.9191 -1.0633 0.4074, 0.9191 -1.0556 0.4128, 0.9191 -1.0555 0.4128, 0.9191 -1.0467 0.4162, 0.9191 -1.0466 0.4162, 0.9191 -1.0372 0.4173, 0.9191 1.0764 0.3828, 0.9191 1.0742 0.3917, 0.9191 1.0741 0.3919, 0.9191 1.0698 0.4002, 0.9191 1.0697 0.4003, 0.9191 1.0635 0.4073, 0.9191 1.0634 0.4074, 0.9191 1.0557 0.4128, 0.9191 1.0556 0.4128, 0.9191 1.0468 0.4162, 0.9191 1.0467 0.4162, 0.9191 1.0373 0.4173, 0.9292 1.0749 0.3838, 0.9385 1.071 0.3845, 0.9292 1.0749 0.3838, 0.9386 1.0709 0.3845, 0.9466 1.0647 0.3847, 0.9528 1.0567 0.3845, 0.9528 1.0567 0.3845, 0.9567 1.0474 0.3838, 0.9568 1.0473 0.3838, 0.9582 1.0373 0.3828, 0.9515 -1.0372 0.4003, 0.9454 -1.0372 0.4073, 0.9445 -1.044 0.4073, 0.9369 -1.042 0.4128, 0.9283 -1.0397 0.4162, 0.9273 -1.0419 0.4162, 0.9239 -1.0454 0.4162, 0.9258 -1.0439 0.4162, 0.9216 -1.0463 0.4162, 0.9286 -1.0372 0.4162, 0.9548 -1.0467 0.3917, 0.9511 -1.0556 0.3917, 0.9452 -1.0633 0.3917, 0.9376 -1.0692 0.3917, 0.9287 -1.0728 0.3917, 0.9452 -1.0372 0.4074, 0.9375 -1.0372 0.4128, 0.9374 -1.0372 0.4128, 0.9286 -1.0372 0.4162, 0.9351 -1.0464 0.4128, 0.9321 -1.0502 0.4128, 0.9283 -1.0531 0.4128, 0.9239 -1.055 0.4128, 0.9418 -1.0503 0.4073, 0.9377 -1.0557 0.4073, 0.9322 -1.0599 0.4073, 0.9259 -1.0625 0.4073, 0.9559 -1.0372 0.3919, 0.9517 -1.0372 0.4002, 0.9505 -1.0456 0.4002, 0.9473 -1.0535 0.4002, 0.9421 -1.0602 0.4002, 0.9354 -1.0654 0.4002, 0.9276 -1.0686 0.4002, 0.956 -1.0372 0.3917, 0.9259 1.0626 0.4073, 0.9239 1.0551 0.4128, 0.9216 1.0464 0.4162, 0.9239 1.0455 0.4162, 0.9273 1.042 0.4162, 0.9258 1.044 0.4162, 0.9283 1.0398 0.4162, 0.9287 1.0729 0.3917, 0.9376 1.0693 0.3917, 0.9452 1.0634 0.3917, 0.9511 1.0557 0.3917, 0.9548 1.0469 0.3917, 0.956 1.0373 0.3917, 0.9286 1.0373 0.4162, 0.9283 1.0532 0.4128, 0.9321 1.0503 0.4128, 0.9351 1.0465 0.4128, 0.9369 1.0421 0.4128, 0.9286 1.0373 0.4162, 0.9374 1.0373 0.4128, 0.9375 1.0373 0.4128, 0.9452 1.0373 0.4074, 0.9322 1.06 0.4073, 0.9377 1.0558 0.4073, 0.9418 1.0504 0.4073, 0.9445 1.0441 0.4073, 0.9276 1.0687 0.4002, 0.9354 1.0655 0.4002, 0.9421 1.0603 0.4002, 0.9473 1.0536 0.4002, 0.9505 1.0457 0.4002, 0.9454 1.0373 0.4073, 0.9515 1.0373 0.4003, 0.9517 1.0373 0.4002, 0.9559 1.0373 0.3919
            ]
        }
        coordIndex [
            0,1,2,-1,2,1,3,-1,2,3,4,-1,4,3,5,-1,4,5,6,-1,6,5,7,-1,8,9,10,-1,10,9,11,-1,10,11,12,-1,13,14,10,-1,10,14,15,-1,10,15,16,-1,12,17,10,-1,10,17,18,-1,10,18,19,-1,19,20,10,-1,10,20,21,-1,10,21,13,-1,22,23,15,-1,15,23,24,-1,15,24,16,-1,25,26,27,-1,25,27,28,-1,28,27,29,-1,28,29,30,-1,30,29,31,-1,30,31,32,-1,32,31,33,-1,33,31,34,-1,33,34,35,-1,35,34,36,-1,36,34,37,-1,36,37,38,-1,38,37,39,-1,39,37,40,-1,39,40,41,-1,42,43,40,-1,40,43,44,-1,40,44,41,-1,45,46,47,-1,45,47,48,-1,48,47,49,-1,48,49,50,-1,50,49,51,-1,50,51,52,-1,52,51,53,-1,53,51,54,-1,53,54,55,-1,55,54,56,-1,56,54,57,-1,56,57,58,-1,58,57,59,-1,59,57,60,-1,59,60,61,-1,62,63,60,-1,60,63,64,-1,60,64,61,-1,36,38,65,-1,65,38,39,-1,65,39,66,-1,66,39,41,-1,66,41,44,-1,65,67,36,-1,36,67,68,-1,36,68,35,-1,35,68,69,-1,69,70,35,-1,35,70,71,-1,35,71,33,-1,33,71,72,-1,33,72,32,-1,32,72,73,-1,32,73,30,-1,30,73,74,-1,30,74,28,-1,28,74,75,-1,28,75,25,-1,76,75,77,-1,77,75,78,-1,77,78,79,-1,79,78,80,-1,79,80,81,-1,81,80,82,-1,81,82,83,-1,83,82,84,-1,83,84,85,-1,85,84,86,-1,85,86,87,-1,87,86,88,-1,87,88,89,-1,89,88,90,-1,89,90,91,-1,91,90,92,-1,91,92,93,-1,93,92,94,-1,93,94,95,-1,94,96,95,-1,95,96,97,-1,95,97,98,-1,56,58,99,-1,99,58,59,-1,99,59,76,-1,76,59,61,-1,76,61,64,-1,99,100,56,-1,56,100,101,-1,56,101,55,-1,55,101,102,-1,102,103,55,-1,55,103,104,-1,55,104,53,-1,53,104,105,-1,53,105,52,-1,52,105,106,-1,52,106,50,-1,50,106,107,-1,50,107,48,-1,48,107,108,-1,48,108,45,-1,109,110,111,-1,109,111,112,-1,112,111,113,-1,112,113,114,-1,114,113,115,-1,114,115,116,-1,116,115,117,-1,117,115,118,-1,117,118,119,-1,119,118,120,-1,120,118,121,-1,120,121,122,-1,122,121,123,-1,123,121,124,-1,123,124,125,-1,126,127,124,-1,124,127,128,-1,124,128,125,-1,129,130,131,-1,132,133,134,-1,97,135,136,-1,137,135,97,-1,134,133,97,-1,138,97,133,-1,139,67,65,-1,67,139,68,-1,68,139,140,-1,68,140,69,-1,69,140,141,-1,69,141,70,-1,70,141,142,-1,70,142,71,-1,71,142,72,-1,72,142,143,-1,72,143,73,-1,73,143,74,-1,74,143,78,-1,74,78,75,-1,96,137,97,-1,144,145,132,-1,132,145,146,-1,132,146,133,-1,133,146,147,-1,133,147,138,-1,148,136,149,-1,149,136,135,-1,149,135,150,-1,150,135,137,-1,150,137,151,-1,96,94,137,-1,137,94,92,-1,137,92,151,-1,151,92,90,-1,151,90,88,-1,131,148,152,-1,152,148,149,-1,152,149,153,-1,153,149,150,-1,153,150,154,-1,154,150,151,-1,154,151,155,-1,155,151,88,-1,156,157,158,-1,158,157,129,-1,129,131,158,-1,158,131,152,-1,158,152,159,-1,159,152,153,-1,159,153,160,-1,160,153,154,-1,160,154,161,-1,161,154,155,-1,161,155,162,-1,130,144,131,-1,131,144,132,-1,131,132,148,-1,148,132,134,-1,148,134,136,-1,136,134,97,-1,156,139,163,-1,163,139,65,-1,163,65,66,-1,88,86,155,-1,155,86,84,-1,155,84,162,-1,162,84,82,-1,162,82,80,-1,156,158,139,-1,139,158,159,-1,139,159,140,-1,140,159,160,-1,140,160,141,-1,141,160,161,-1,141,161,142,-1,142,161,162,-1,142,162,143,-1,143,162,80,-1,143,80,78,-1,83,85,164,-1,165,166,167,-1,98,168,169,-1,170,168,98,-1,167,166,98,-1,95,98,166,-1,171,100,99,-1,100,171,101,-1,101,171,172,-1,101,172,102,-1,102,172,173,-1,102,173,103,-1,103,173,174,-1,103,174,104,-1,104,174,105,-1,105,174,175,-1,105,175,106,-1,106,175,107,-1,107,175,176,-1,107,176,108,-1,177,170,98,-1,87,89,165,-1,165,89,91,-1,165,91,166,-1,166,91,93,-1,166,93,95,-1,178,169,179,-1,179,169,168,-1,179,168,180,-1,180,168,170,-1,180,170,181,-1,177,182,170,-1,170,182,183,-1,170,183,181,-1,181,183,184,-1,181,184,185,-1,164,178,186,-1,186,178,179,-1,186,179,187,-1,187,179,180,-1,187,180,188,-1,188,180,181,-1,188,181,189,-1,189,181,185,-1,79,81,190,-1,190,81,83,-1,83,164,190,-1,190,164,186,-1,190,186,191,-1,191,186,187,-1,191,187,192,-1,192,187,188,-1,192,188,193,-1,193,188,189,-1,193,189,194,-1,85,87,164,-1,164,87,165,-1,164,165,178,-1,178,165,167,-1,178,167,169,-1,169,167,98,-1,79,171,77,-1,77,171,99,-1,77,99,76,-1,185,195,189,-1,189,195,196,-1,189,196,194,-1,194,196,197,-1,194,197,198,-1,79,190,171,-1,171,190,191,-1,171,191,172,-1,172,191,192,-1,172,192,173,-1,173,192,193,-1,173,193,174,-1,174,193,194,-1,174,194,175,-1,175,194,198,-1,175,198,176,-1,199,200,201,-1,199,201,202,-1,202,201,203,-1,202,203,204,-1,204,203,205,-1,204,205,206,-1,206,205,207,-1,207,205,208,-1,207,208,209,-1,209,208,210,-1,210,208,211,-1,210,211,212,-1,212,211,213,-1,213,211,214,-1,213,214,215,-1,215,214,216,-1,216,214,217,-1,216,217,218,-1,219,220,217,-1,217,220,221,-1,217,221,218,-1,120,122,222,-1,222,122,123,-1,222,123,223,-1,223,123,125,-1,223,125,128,-1,222,224,120,-1,120,224,225,-1,120,225,119,-1,119,225,226,-1,226,227,119,-1,119,227,228,-1,119,228,117,-1,117,228,229,-1,117,229,116,-1,116,229,230,-1,116,230,114,-1,114,230,231,-1,114,231,112,-1,112,231,232,-1,112,232,109,-1,66,232,163,-1,163,232,233,-1,163,233,156,-1,156,233,234,-1,156,234,157,-1,157,234,235,-1,157,235,129,-1,129,235,236,-1,129,236,130,-1,130,236,237,-1,130,237,144,-1,144,237,238,-1,144,238,145,-1,145,238,239,-1,145,239,146,-1,146,239,240,-1,146,240,147,-1,147,240,241,-1,147,241,138,-1,241,242,138,-1,138,242,243,-1,138,243,97,-1,244,108,245,-1,245,108,176,-1,245,176,246,-1,246,176,198,-1,246,198,247,-1,247,198,197,-1,247,197,248,-1,248,197,196,-1,248,196,249,-1,249,196,195,-1,249,195,250,-1,250,195,185,-1,250,185,251,-1,251,185,184,-1,251,184,252,-1,252,184,183,-1,252,183,253,-1,253,183,182,-1,253,182,254,-1,182,177,254,-1,254,177,98,-1,254,98,255,-1,221,244,218,-1,218,244,256,-1,218,256,216,-1,257,213,215,-1,216,256,215,-1,215,256,258,-1,215,258,257,-1,213,257,212,-1,212,257,259,-1,212,259,210,-1,210,259,260,-1,210,260,209,-1,209,260,261,-1,209,261,207,-1,207,261,262,-1,207,262,206,-1,206,262,263,-1,206,263,204,-1,204,263,264,-1,204,264,202,-1,202,264,265,-1,202,265,199,-1,266,267,268,-1,269,270,271,-1,243,272,273,-1,274,272,243,-1,271,270,243,-1,275,243,270,-1,276,224,222,-1,224,276,225,-1,225,276,277,-1,225,277,226,-1,226,277,278,-1,226,278,227,-1,227,278,279,-1,227,279,228,-1,228,279,229,-1,229,279,280,-1,229,280,230,-1,230,280,231,-1,231,280,233,-1,231,233,232,-1,242,274,243,-1,281,282,269,-1,269,282,283,-1,269,283,270,-1,270,283,284,-1,270,284,275,-1,285,273,286,-1,286,273,272,-1,286,272,287,-1,287,272,274,-1,287,274,288,-1,242,241,274,-1,274,241,240,-1,274,240,288,-1,288,240,239,-1,288,239,238,-1,268,285,289,-1,289,285,286,-1,289,286,290,-1,290,286,287,-1,290,287,291,-1,291,287,288,-1,291,288,292,-1,292,288,238,-1,293,294,295,-1,295,294,266,-1,266,268,295,-1,295,268,289,-1,295,289,296,-1,296,289,290,-1,296,290,297,-1,297,290,291,-1,297,291,298,-1,298,291,292,-1,298,292,299,-1,267,281,268,-1,268,281,269,-1,268,269,285,-1,285,269,271,-1,285,271,273,-1,273,271,243,-1,293,276,300,-1,300,276,222,-1,300,222,223,-1,238,237,292,-1,292,237,236,-1,292,236,299,-1,299,236,235,-1,299,235,234,-1,293,295,276,-1,276,295,296,-1,276,296,277,-1,277,296,297,-1,277,297,278,-1,278,297,298,-1,278,298,279,-1,279,298,299,-1,279,299,280,-1,280,299,234,-1,280,234,233,-1,248,249,301,-1,302,303,304,-1,255,305,306,-1,307,305,255,-1,304,303,255,-1,254,255,303,-1,308,258,256,-1,258,308,257,-1,257,308,309,-1,257,309,259,-1,259,309,310,-1,259,310,260,-1,260,310,311,-1,260,311,261,-1,261,311,262,-1,262,311,312,-1,262,312,263,-1,263,312,264,-1,264,312,313,-1,264,313,265,-1,314,307,255,-1,250,251,302,-1,302,251,252,-1,302,252,303,-1,303,252,253,-1,303,253,254,-1,315,306,316,-1,316,306,305,-1,316,305,317,-1,317,305,307,-1,317,307,318,-1,314,319,307,-1,307,319,320,-1,307,320,318,-1,318,320,321,-1,318,321,322,-1,301,315,323,-1,323,315,316,-1,323,316,324,-1,324,316,317,-1,324,317,325,-1,325,317,318,-1,325,318,326,-1,326,318,322,-1,246,247,327,-1,327,247,248,-1,248,301,327,-1,327,301,323,-1,327,323,328,-1,328,323,324,-1,328,324,329,-1,329,324,325,-1,329,325,330,-1,330,325,326,-1,330,326,331,-1,249,250,301,-1,301,250,302,-1,301,302,315,-1,315,302,304,-1,315,304,306,-1,306,304,255,-1,246,308,245,-1,245,308,256,-1,245,256,244,-1,322,332,326,-1,326,332,333,-1,326,333,331,-1,331,333,334,-1,331,334,335,-1,246,327,308,-1,308,327,328,-1,308,328,309,-1,309,328,329,-1,309,329,310,-1,310,329,330,-1,310,330,311,-1,311,330,331,-1,311,331,312,-1,312,331,335,-1,312,335,313,-1,223,265,300,-1,300,265,313,-1,300,313,293,-1,293,313,335,-1,293,335,294,-1,294,335,334,-1,294,334,266,-1,266,334,333,-1,266,333,267,-1,267,333,332,-1,267,332,281,-1,281,332,322,-1,281,322,282,-1,282,322,321,-1,282,321,283,-1,283,321,320,-1,283,320,284,-1,284,320,319,-1,284,319,275,-1,319,314,275,-1,275,314,255,-1,275,255,243,-1,
        ]
    }
}
Shape{
    appearance Appearance {
        material  Material 	{
            diffuseColor 0.7529411764705882 0.7529411764705882 0.7529411764705882
            specularColor 0.3764705882352941 0.3764705882352941 0.3764705882352941
            ambientIntensity 0.7529
            transparency 0.0
            shininess 0.5
        }
    }
    geometry IndexedFaceSet {
        ccw TRUE
        solid FALSE
        coord DEF co Coordinate {
            point [
                0.5741 -0.0187 0.4169, 0.5741 -0.0187 0.4173, 0.5729 -0.0049 0.4173, 0.5729 -0.0049 0.4169, 0.5693 0.0067 0.4173, 0.5693 0.0067 0.4169, 0.5628 0.0175 0.4173, 0.5628 0.0175 0.4169, 0.554 0.0261 0.4173, 0.554 0.0261 0.4169, 0.5408 0.0338 0.4173, 0.5408 0.0338 0.4169, 0.5255 0.0383 0.4173, 0.5255 0.0383 0.4169, 0.5059 0.04 0.4173, 0.5059 0.04 0.4169, 0.503 -0.0824 0.4169, 0.503 -0.0824 0.4173, 0.5165 -0.0816 0.4173, 0.5165 -0.0816 0.4169, 0.5181 -0.0812 0.4173, 0.5356 -0.0768 0.4169, 0.5356 -0.0768 0.4173, 0.5488 -0.0697 0.4173, 0.5488 -0.0697 0.4169, 0.5597 -0.06 0.4173, 0.5597 -0.06 0.4169, 0.5678 -0.0479 0.4173, 0.5678 -0.0479 0.4169, 0.5723 -0.0353 0.4173, 0.5723 -0.0353 0.4169, 0.4848 -0.0812 0.4173, 0.4816 -0.081 0.4169, 0.4816 -0.081 0.4173, 0.4669 -0.0773 0.4169, 0.4669 -0.0773 0.4173, 0.4613 -0.0747 0.4169, 0.4613 -0.0747 0.4173, 0.4613 -0.0506 0.4169, 0.4613 -0.0506 0.4173, 0.5019 -0.0608 0.4169, 0.5019 -0.0608 0.4173, 0.481 -0.0582 0.4173, 0.481 -0.0582 0.4169, 0.5477 -0.0203 0.4169, 0.5477 -0.0203 0.4173, 0.5471 -0.0283 0.4173, 0.5471 -0.0283 0.4169, 0.5445 -0.0369 0.4173, 0.5445 -0.0369 0.4169, 0.5403 -0.0442 0.4173, 0.5403 -0.0442 0.4169, 0.5341 -0.0506 0.4173, 0.5341 -0.0506 0.4169, 0.5251 -0.0562 0.4173, 0.5251 -0.0562 0.4169, 0.5149 -0.0596 0.4173, 0.5149 -0.0596 0.4169, 0.4972 0.0184 0.4169, 0.4972 0.0184 0.4173, 0.5144 0.0169 0.4173, 0.5144 0.0169 0.4169, 0.5269 0.0129 0.4173, 0.5269 0.0129 0.4169, 0.5333 0.0091 0.4173, 0.5333 0.0091 0.4169, 0.5394 0.0036 0.4173, 0.5394 0.0036 0.4169, 0.544 -0.0032 0.4173, 0.544 -0.0032 0.4169, 0.5466 -0.0103 0.4173, 0.5466 -0.0103 0.4169, 0.4637 0.0168 0.4169, 0.4637 0.0168 0.4173, 0.4804 0.018 0.4173, 0.4804 0.018 0.4169, 0.4711 0.1168 0.4169, 0.4711 0.1168 0.4173, 0.5645 0.1168 0.4169, 0.5645 0.1168 0.4173, 0.5645 0.0952 0.4169, 0.5645 0.0952 0.4173, 0.4919 0.0952 0.4169, 0.4919 0.0952 0.4173, 0.4877 0.0393 0.4169, 0.4877 0.0393 0.4173, 0.3633 -0.0824 0.4173, 0.3633 -0.0824 0.4169, 0.3522 -0.0812 0.4173, 0.3493 -0.0809 0.4169, 0.3493 -0.0809 0.4173, 0.3379 -0.0768 0.4169, 0.3379 -0.0768 0.4173, 0.328 -0.0703 0.4169, 0.328 -0.0703 0.4173, 0.3183 -0.0597 0.4169, 0.3183 -0.0597 0.4173, 0.3097 -0.0438 0.4169, 0.3097 -0.0438 0.4173, 0.3027 -0.0175 0.4169, 0.3027 -0.0175 0.4173, 0.3005 0.0146 0.4169, 0.3005 0.0146 0.4173, 0.3518 0.1175 0.4169, 0.3677 0.1192 0.4169, 0.3569 0.118 0.4173, 0.3677 0.1192 0.4173, 0.3518 0.1175 0.4173, 0.3396 0.113 0.4173, 0.3396 0.113 0.4169, 0.3292 0.106 0.4173, 0.3292 0.106 0.4169, 0.3201 0.0962 0.4173, 0.3201 0.0962 0.4169, 0.3102 0.0778 0.4173, 0.3102 0.0778 0.4169, 0.303 0.0501 0.4173, 0.303 0.0501 0.4169, 0.3791 0.118 0.4173, 0.382 0.1177 0.4169, 0.382 0.1177 0.4173, 0.3936 0.1137 0.4169, 0.3936 0.1137 0.4173, 0.4038 0.1069 0.4169, 0.4038 0.1069 0.4173, 0.4118 0.0983 0.4169, 0.4118 0.0983 0.4173, 0.42 0.0835 0.4169, 0.42 0.0835 0.4173, 0.4271 0.0584 0.4169, 0.4271 0.0584 0.4173, 0.4301 0.0192 0.4169, 0.4301 0.0192 0.4173, 0.3783 -0.0808 0.4169, 0.3741 -0.0812 0.4173, 0.3783 -0.0808 0.4173, 0.3905 -0.0764 0.4173, 0.3905 -0.0764 0.4169, 0.4006 -0.0697 0.4173, 0.4006 -0.0697 0.4169, 0.4103 -0.0594 0.4173, 0.4103 -0.0594 0.4169, 0.4204 -0.0411 0.4173, 0.4204 -0.0411 0.4169, 0.4275 -0.0151 0.4173, 0.4275 -0.0151 0.4169, 0.3735 -0.0599 0.4169, 0.3656 -0.0608 0.4169, 0.3638 -0.0607 0.4169, 0.357 -0.0597 0.4169, 0.3508 -0.0573 0.4169, 0.3451 -0.0533 0.4169, 0.3394 -0.0465 0.4169, 0.3345 -0.0371 0.4169, 0.3295 -0.019 0.4169, 0.3269 0.0158 0.4169, 0.3292 0.0507 0.4169, 0.3347 0.0726 0.4169, 0.3406 0.0839 0.4169, 0.3462 0.0902 0.4169, 0.3519 0.0942 0.4169, 0.3581 0.0966 0.4169, 0.3663 0.0976 0.4169, 0.3733 0.0969 0.4169, 0.3792 0.0947 0.4169, 0.3843 0.0913 0.4169, 0.3896 0.0856 0.4169, 0.3947 0.0767 0.4169, 0.401 0.0545 0.4169, 0.4037 0.0171 0.4169, 0.4016 -0.0153 0.4169, 0.3964 -0.0363 0.4169, 0.3908 -0.0471 0.4169, 0.3853 -0.0535 0.4169, 0.3796 -0.0575 0.4169, 0.3269 0.0158 0.4173, 0.3292 0.0507 0.4173, 0.3347 0.0726 0.4173, 0.3406 0.0839 0.4173, 0.3462 0.0902 0.4173, 0.3519 0.0942 0.4173, 0.3581 0.0966 0.4173, 0.3663 0.0976 0.4173, 0.3733 0.0969 0.4173, 0.3792 0.0947 0.4173, 0.3843 0.0913 0.4173, 0.3896 0.0856 0.4173, 0.3947 0.0767 0.4173, 0.401 0.0545 0.4173, 0.4037 0.0171 0.4173, 0.4016 -0.0153 0.4173, 0.3964 -0.0363 0.4173, 0.3908 -0.0471 0.4173, 0.3853 -0.0535 0.4173, 0.3796 -0.0575 0.4173, 0.3735 -0.0599 0.4173, 0.3656 -0.0608 0.4173, 0.3638 -0.0607 0.4173, 0.357 -0.0597 0.4173, 0.3508 -0.0573 0.4173, 0.3451 -0.0533 0.4173, 0.3394 -0.0465 0.4173, 0.3345 -0.0371 0.4173, 0.3295 -0.019 0.4173, 0.2292 0.1168 0.4169, 0.2549 0.1168 0.4169, 0.2292 0.1168 0.4173, 0.2549 0.1168 0.4173, 0.2549 -0.0128 0.4169, 0.2549 -0.0128 0.4173, 0.2837 -0.0128 0.4169, 0.2837 -0.0128 0.4173, 0.2837 -0.0344 0.4169, 0.2837 -0.0344 0.4173, 0.2549 -0.0344 0.4169, 0.2549 -0.0344 0.4173, 0.2549 -0.08 0.4169, 0.2549 -0.08 0.4173, 0.2308 -0.08 0.4169, 0.2308 -0.08 0.4173, 0.2308 -0.0344 0.4169, 0.2308 -0.0344 0.4173, 0.1396 -0.0344 0.4169, 0.1396 -0.0344 0.4173, 0.1396 -0.0139 0.4169, 0.1396 -0.0139 0.4173, 0.1935 0.0568 0.4173, 0.1935 0.0568 0.4169, 0.2308 0.0807 0.4169, 0.2308 -0.0128 0.4169, 0.2013 0.0326 0.4169, 0.1675 -0.0128 0.4169, 0.1675 -0.0128 0.4173, 0.2013 0.0326 0.4173, 0.2308 0.0807 0.4173, 0.2308 -0.0128 0.4173, 0.0052 -0.0722 0.4169, 0.0052 -0.0458 0.4169, 0.0052 -0.0722 0.4173, 0.0052 -0.0458 0.4173, 0.0503 -0.0608 0.4169, 0.0503 -0.0608 0.4173, 0.0381 -0.0599 0.4173, 0.0381 -0.0599 0.4169, 0.0213 -0.0551 0.4173, 0.0213 -0.0551 0.4169, 0.094 -0.0251 0.4169, 0.094 -0.0251 0.4173, 0.0932 -0.0329 0.4173, 0.0932 -0.0329 0.4169, 0.0908 -0.0405 0.4173, 0.0908 -0.0405 0.4169, 0.0862 -0.0472 0.4173, 0.0862 -0.0472 0.4169, 0.0805 -0.0525 0.4173, 0.0805 -0.0525 0.4169, 0.0733 -0.0566 0.4173, 0.0733 -0.0566 0.4169, 0.0633 -0.0597 0.4173, 0.0633 -0.0597 0.4169, 0.0407 0.0112 0.4169, 0.0407 0.0112 0.4173, 0.0593 0.0099 0.4173, 0.0593 0.0099 0.4169, 0.0737 0.0059 0.4173, 0.0737 0.0059 0.4169, 0.0818 0.0014 0.4173, 0.0818 0.0014 0.4169, 0.087 -0.0036 0.4173, 0.087 -0.0036 0.4169, 0.0908 -0.0095 0.4173, 0.0908 -0.0095 0.4169, 0.0931 -0.0162 0.4173, 0.0931 -0.0162 0.4169, 0.0244 0.0112 0.4169, 0.0244 0.0112 0.4173, 0.0244 0.0328 0.4169, 0.0244 0.0328 0.4173, 0.0399 0.0328 0.4169, 0.0399 0.0328 0.4173, 0.0868 0.0665 0.4169, 0.0868 0.0665 0.4173, 0.0868 0.0656 0.4173, 0.0868 0.0656 0.4169, 0.0856 0.0567 0.4173, 0.0856 0.0567 0.4169, 0.0833 0.0506 0.4173, 0.0833 0.0506 0.4169, 0.0799 0.0456 0.4173, 0.0799 0.0456 0.4169, 0.075 0.0412 0.4173, 0.075 0.0412 0.4169, 0.0671 0.037 0.4173, 0.0671 0.037 0.4169, 0.056 0.034 0.4173, 0.056 0.034 0.4169, 0.051 0.0976 0.4169, 0.051 0.0976 0.4173, 0.0557 0.0975 0.4173, 0.0557 0.0975 0.4169, 0.0672 0.0955 0.4173, 0.0672 0.0955 0.4169, 0.0741 0.0925 0.4173, 0.0741 0.0925 0.4169, 0.0776 0.09 0.4173, 0.0776 0.09 0.4169, 0.0815 0.0859 0.4173, 0.0815 0.0859 0.4169, 0.0842 0.0809 0.4173, 0.0842 0.0809 0.4169, 0.0861 0.0746 0.4173, 0.0861 0.0746 0.4169, 0.0124 0.0826 0.4169, 0.0124 0.0826 0.4173, 0.0233 0.0902 0.4173, 0.0233 0.0902 0.4169, 0.0372 0.0959 0.4173, 0.0372 0.0959 0.4169, 0.0124 0.1042 0.4169, 0.0124 0.1042 0.4173, 0.0276 0.1133 0.4169, 0.0575 0.1192 0.4169, 0.0575 0.1192 0.4173, 0.0438 0.1181 0.4173, 0.0438 0.1181 0.4169, 0.0436 0.118 0.4173, 0.0276 0.1133 0.4173, 0.0702 0.118 0.4173, 0.0734 0.1177 0.4169, 0.0734 0.1177 0.4173, 0.0861 0.1138 0.4169, 0.0861 0.1138 0.4173, 0.0959 0.1079 0.4169, 0.0959 0.1079 0.4173, 0.1038 0.1003 0.4169, 0.1038 0.1003 0.4173, 0.109 0.0923 0.4169, 0.109 0.0923 0.4173, 0.1122 0.083 0.4169, 0.1122 0.083 0.4173, 0.1132 0.0726 0.4169, 0.1132 0.0726 0.4173, 0.073 0.0236 0.4169, 0.073 0.0236 0.4173, 0.0774 0.0249 0.4173, 0.0774 0.0249 0.4169, 0.0917 0.0314 0.4173, 0.0917 0.0314 0.4169, 0.1001 0.0379 0.4173, 0.1001 0.0379 0.4169, 0.1033 0.0415 0.4173, 0.1033 0.0415 0.4169, 0.1086 0.0499 0.4173, 0.1086 0.0499 0.4169, 0.112 0.0601 0.4173, 0.112 0.0601 0.4169, 0.073 0.0231 0.4169, 0.073 0.0231 0.4173, 0.1204 -0.0236 0.4169, 0.1204 -0.0236 0.4173, 0.1203 -0.0196 0.4173, 0.1203 -0.0196 0.4169, 0.1184 -0.0094 0.4173, 0.1184 -0.0094 0.4169, 0.1141 0.0001 0.4173, 0.1141 0.0001 0.4169, 0.1079 0.0079 0.4173, 0.1079 0.0079 0.4169, 0.0986 0.0152 0.4173, 0.0986 0.0152 0.4169, 0.0875 0.0202 0.4173, 0.0875 0.0202 0.4169, 0.0503 -0.0824 0.4169, 0.0503 -0.0824 0.4173, 0.0637 -0.0816 0.4173, 0.0637 -0.0816 0.4169, 0.0654 -0.0812 0.4173, 0.0826 -0.0771 0.4169, 0.0826 -0.0771 0.4173, 0.0959 -0.0702 0.4173, 0.0959 -0.0702 0.4169, 0.1069 -0.0608 0.4173, 0.1069 -0.0608 0.4169, 0.1142 -0.0503 0.4173, 0.1142 -0.0503 0.4169, 0.1186 -0.0388 0.4173, 0.1186 -0.0388 0.4169, 0.0372 -0.0812 0.4173, 0.0271 -0.0803 0.4169, 0.0271 -0.0803 0.4173, 0.0101 -0.0748 0.4169, 0.0101 -0.0748 0.4173, -0.0404 -0.08 0.4169, -0.0644 -0.08 0.4169, -0.0404 -0.08 0.4173, -0.0644 -0.08 0.4173, -0.0644 0.0514 0.4169, -0.0644 0.0514 0.4173, -0.0625 0.0904 0.4169, -0.0625 0.0904 0.4173, -0.0639 0.0709 0.4173, -0.0639 0.0709 0.4169, -0.0632 0.0904 0.4169, -0.0632 0.0904 0.4173, -0.069 0.0704 0.4169, -0.069 0.0704 0.4173, -0.0657 0.0803 0.4173, -0.0657 0.0803 0.4169, -0.134 -0.08 0.4169, -0.134 -0.08 0.4173, -0.1485 -0.08 0.4169, -0.1485 -0.08 0.4173, -0.2123 0.0693 0.4169, -0.2123 0.0693 0.4173, -0.2181 0.0904 0.4169, -0.2181 0.0904 0.4173, -0.2156 0.0798 0.4173, -0.2156 0.0798 0.4169, -0.2188 0.0904 0.4169, -0.2188 0.0904 0.4173, -0.2181 0.0502 0.4169, -0.2181 0.0502 0.4173, -0.2182 0.0703 0.4173, -0.2182 0.0703 0.4169, -0.2181 -0.08 0.4169, -0.2181 -0.08 0.4173, -0.2421 -0.08 0.4169, -0.2421 -0.08 0.4173, -0.2421 0.1168 0.4169, -0.2421 0.1168 0.4173, -0.2085 0.1168 0.4169, -0.2085 0.1168 0.4173, -0.1502 -0.0176 0.4169, -0.1502 -0.0176 0.4173, -0.1414 -0.0416 0.4169, -0.1414 -0.0416 0.4173, -0.1454 -0.0294 0.4173, -0.1454 -0.0294 0.4169, -0.1405 -0.0416 0.4169, -0.1405 -0.0416 0.4173, -0.1312 -0.017 0.4169, -0.1312 -0.017 0.4173, -0.136 -0.0293 0.4173, -0.136 -0.0293 0.4169, -0.0716 0.1168 0.4169, -0.0716 0.1168 0.4173, -0.0404 0.1168 0.4169, -0.0404 0.1168 0.4173, -0.3854 -0.08 0.4169, -0.4389 -0.08 0.4169, -0.3854 -0.08 0.4173, -0.4389 -0.08 0.4173, -0.4389 0.1168 0.4169, -0.4389 0.1168 0.4173, -0.3834 0.1168 0.4169, -0.3834 0.1168 0.4173, -0.2805 0.0209 0.4169, -0.2805 0.0209 0.4173, -0.2819 0.0394 0.4173, -0.2819 0.0394 0.4169, -0.2872 0.0588 0.4173, -0.2872 0.0588 0.4169, -0.2964 0.0757 0.4173, -0.2964 0.0757 0.4169, -0.3103 0.0912 0.4173, -0.3103 0.0912 0.4169, -0.3105 0.0913 0.4173, -0.3105 0.0913 0.4169, -0.3319 0.1057 0.4173, -0.3319 0.1057 0.4169, -0.3549 0.1138 0.4173, -0.3549 0.1138 0.4169, -0.361 -0.0779 0.4173, -0.361 -0.0779 0.4169, -0.3384 -0.0711 0.4173, -0.3384 -0.0711 0.4169, -0.3178 -0.0592 0.4173, -0.3178 -0.0592 0.4169, -0.3016 -0.0437 0.4173, -0.3016 -0.0437 0.4169, -0.2903 -0.0261 0.4173, -0.2903 -0.0261 0.4169, -0.2832 -0.0055 0.4173, -0.2832 -0.0055 0.4169, -0.32 0.0676 0.4169, -0.3296 0.0778 0.4169, -0.3439 0.0871 0.4169, -0.3602 0.0928 0.4169, -0.3835 0.0952 0.4169, -0.4125 0.0952 0.4169, -0.4125 -0.0584 0.4169, -0.3846 -0.0584 0.4169, -0.3638 -0.0565 0.4169, -0.3472 -0.0513 0.4169, -0.3338 -0.0433 0.4169, -0.3228 -0.0324 0.4169, -0.3145 -0.0189 0.4169, -0.3087 -0.0004 0.4169, -0.3069 0.0203 0.4169, -0.3086 0.0399 0.4169, -0.3132 0.0555 0.4169, -0.3835 0.0952 0.4173, -0.4125 0.0952 0.4173, -0.3602 0.0928 0.4173, -0.3439 0.0871 0.4173, -0.3296 0.0778 0.4173, -0.32 0.0676 0.4173, -0.3132 0.0555 0.4173, -0.3086 0.0399 0.4173, -0.3069 0.0203 0.4173, -0.3087 -0.0004 0.4173, -0.3145 -0.0189 0.4173, -0.3228 -0.0324 0.4173, -0.3338 -0.0433 0.4173, -0.3472 -0.0513 0.4173, -0.3638 -0.0565 0.4173, -0.3846 -0.0584 0.4173, -0.4125 -0.0584 0.4173, -0.4677 0.1168 0.4169, -0.4677 0.0952 0.4169, -0.4677 0.1168 0.4173, -0.4677 0.0952 0.4173, -0.5253 0.0952 0.4169, -0.5253 0.0952 0.4173, -0.5253 -0.08 0.4169, -0.5253 -0.08 0.4173, -0.5518 -0.08 0.4169, -0.5518 -0.08 0.4173, -0.5518 0.0952 0.4169, -0.5518 0.0952 0.4173, -0.607 0.0952 0.4169, -0.607 0.0952 0.4173, -0.607 0.1168 0.4169, -0.607 0.1168 0.4173
            ]
        }
        coordIndex [
            0,1,2,-1,0,2,3,-1,3,2,4,-1,3,4,5,-1,5,4,6,-1,5,6,7,-1,7,6,8,-1,7,8,9,-1,9,8,10,-1,9,10,11,-1,11,10,12,-1,11,12,13,-1,13,12,14,-1,13,14,15,-1,16,17,18,-1,16,18,19,-1,19,18,20,-1,19,20,21,-1,20,22,21,-1,21,22,23,-1,21,23,24,-1,24,23,25,-1,24,25,26,-1,26,25,27,-1,26,27,28,-1,28,27,29,-1,28,29,30,-1,30,29,1,-1,30,1,0,-1,17,16,31,-1,31,16,32,-1,31,32,33,-1,33,32,34,-1,33,34,35,-1,35,34,36,-1,35,36,37,-1,36,38,37,-1,37,38,39,-1,40,41,42,-1,40,42,43,-1,43,42,39,-1,43,39,38,-1,44,45,46,-1,44,46,47,-1,47,46,48,-1,47,48,49,-1,49,48,50,-1,49,50,51,-1,51,50,52,-1,51,52,53,-1,53,52,54,-1,53,54,55,-1,55,54,56,-1,55,56,57,-1,57,56,41,-1,57,41,40,-1,58,59,60,-1,58,60,61,-1,61,60,62,-1,61,62,63,-1,63,62,64,-1,63,64,65,-1,65,64,66,-1,65,66,67,-1,67,66,68,-1,67,68,69,-1,69,68,70,-1,69,70,71,-1,71,70,45,-1,71,45,44,-1,72,73,74,-1,72,74,75,-1,75,74,59,-1,75,59,58,-1,72,76,73,-1,73,76,77,-1,76,78,77,-1,77,78,79,-1,78,80,79,-1,79,80,81,-1,80,82,81,-1,81,82,83,-1,82,84,83,-1,83,84,85,-1,84,15,85,-1,85,15,14,-1,80,78,82,-1,82,78,76,-1,82,76,84,-1,76,72,84,-1,84,72,75,-1,84,75,15,-1,15,75,58,-1,15,58,13,-1,13,58,61,-1,13,61,11,-1,11,61,63,-1,11,63,9,-1,9,63,65,-1,9,65,7,-1,7,65,67,-1,7,67,5,-1,5,67,69,-1,5,69,3,-1,3,69,71,-1,3,71,0,-1,0,71,44,-1,0,44,30,-1,30,44,47,-1,30,47,28,-1,28,47,49,-1,28,49,26,-1,26,49,51,-1,26,51,24,-1,24,51,53,-1,24,53,21,-1,21,53,55,-1,21,55,19,-1,19,55,57,-1,19,57,16,-1,16,57,40,-1,16,40,32,-1,32,40,43,-1,32,43,34,-1,34,43,38,-1,34,38,36,-1,86,87,88,-1,88,87,89,-1,88,89,90,-1,90,89,91,-1,90,91,92,-1,92,91,93,-1,92,93,94,-1,94,93,95,-1,94,95,96,-1,96,95,97,-1,96,97,98,-1,98,97,99,-1,98,99,100,-1,100,99,101,-1,100,101,102,-1,103,104,105,-1,105,104,106,-1,105,107,103,-1,103,107,108,-1,103,108,109,-1,109,108,110,-1,109,110,111,-1,111,110,112,-1,111,112,113,-1,113,112,114,-1,113,114,115,-1,115,114,116,-1,115,116,117,-1,117,116,102,-1,117,102,101,-1,106,104,118,-1,118,104,119,-1,118,119,120,-1,120,119,121,-1,120,121,122,-1,122,121,123,-1,122,123,124,-1,124,123,125,-1,124,125,126,-1,126,125,127,-1,126,127,128,-1,128,127,129,-1,128,129,130,-1,130,129,131,-1,130,131,132,-1,133,87,134,-1,134,87,86,-1,134,135,133,-1,133,135,136,-1,133,136,137,-1,137,136,138,-1,137,138,139,-1,139,138,140,-1,139,140,141,-1,141,140,142,-1,141,142,143,-1,143,142,144,-1,143,144,145,-1,145,144,132,-1,145,132,131,-1,146,147,87,-1,87,147,148,-1,87,148,89,-1,89,148,149,-1,89,149,91,-1,91,149,150,-1,91,150,93,-1,93,150,151,-1,93,151,95,-1,95,151,152,-1,95,152,97,-1,97,152,153,-1,97,153,99,-1,99,153,154,-1,99,154,101,-1,101,154,155,-1,101,155,117,-1,117,155,156,-1,117,156,115,-1,115,156,157,-1,115,157,113,-1,113,157,158,-1,113,158,111,-1,111,158,159,-1,111,159,109,-1,109,159,160,-1,109,160,103,-1,103,160,161,-1,103,161,104,-1,104,161,162,-1,104,162,119,-1,119,162,163,-1,119,163,121,-1,121,163,164,-1,121,164,123,-1,123,164,165,-1,123,165,125,-1,125,165,166,-1,125,166,127,-1,127,166,167,-1,127,167,129,-1,129,167,168,-1,129,168,131,-1,131,168,169,-1,131,169,145,-1,145,169,170,-1,145,170,143,-1,143,170,171,-1,143,171,141,-1,141,171,172,-1,141,172,139,-1,139,172,173,-1,139,173,137,-1,137,173,174,-1,137,174,133,-1,133,174,146,-1,133,146,87,-1,155,175,176,-1,155,176,156,-1,156,176,177,-1,156,177,157,-1,157,177,178,-1,157,178,158,-1,158,178,179,-1,158,179,159,-1,159,179,180,-1,159,180,160,-1,160,180,181,-1,160,181,161,-1,161,181,182,-1,161,182,162,-1,162,182,183,-1,162,183,163,-1,163,183,184,-1,163,184,164,-1,164,184,185,-1,164,185,165,-1,165,185,186,-1,165,186,166,-1,166,186,187,-1,166,187,167,-1,167,187,188,-1,167,188,168,-1,168,188,189,-1,168,189,169,-1,169,189,190,-1,169,190,170,-1,170,190,191,-1,170,191,171,-1,171,191,192,-1,171,192,172,-1,172,192,193,-1,172,193,173,-1,173,193,194,-1,173,194,174,-1,174,194,195,-1,174,195,146,-1,146,195,196,-1,146,196,147,-1,147,196,197,-1,147,197,148,-1,148,197,198,-1,148,198,149,-1,149,198,199,-1,149,199,150,-1,150,199,200,-1,150,200,151,-1,151,200,201,-1,151,201,152,-1,152,201,202,-1,152,202,153,-1,153,202,203,-1,153,203,154,-1,154,203,175,-1,154,175,155,-1,204,205,206,-1,206,205,207,-1,205,208,207,-1,207,208,209,-1,208,210,209,-1,209,210,211,-1,210,212,211,-1,211,212,213,-1,212,214,213,-1,213,214,215,-1,214,216,215,-1,215,216,217,-1,216,218,217,-1,217,218,219,-1,218,220,219,-1,219,220,221,-1,220,222,221,-1,221,222,223,-1,222,224,223,-1,223,224,225,-1,204,206,226,-1,204,226,227,-1,227,226,225,-1,227,225,224,-1,228,229,208,-1,218,216,220,-1,220,216,214,-1,208,205,228,-1,228,205,204,-1,228,204,230,-1,230,204,227,-1,230,227,231,-1,212,210,214,-1,214,210,208,-1,214,208,220,-1,220,208,229,-1,220,229,222,-1,222,229,231,-1,222,231,224,-1,224,231,227,-1,231,232,233,-1,231,233,230,-1,230,233,234,-1,230,234,228,-1,229,228,235,-1,235,228,234,-1,231,229,232,-1,232,229,235,-1,236,237,238,-1,238,237,239,-1,240,241,242,-1,240,242,243,-1,243,242,244,-1,243,244,245,-1,245,244,239,-1,245,239,237,-1,246,247,248,-1,246,248,249,-1,249,248,250,-1,249,250,251,-1,251,250,252,-1,251,252,253,-1,253,252,254,-1,253,254,255,-1,255,254,256,-1,255,256,257,-1,257,256,258,-1,257,258,259,-1,259,258,241,-1,259,241,240,-1,260,261,262,-1,260,262,263,-1,263,262,264,-1,263,264,265,-1,265,264,266,-1,265,266,267,-1,267,266,268,-1,267,268,269,-1,269,268,270,-1,269,270,271,-1,271,270,272,-1,271,272,273,-1,273,272,247,-1,273,247,246,-1,260,274,261,-1,261,274,275,-1,274,276,275,-1,275,276,277,-1,276,278,277,-1,277,278,279,-1,280,281,282,-1,280,282,283,-1,283,282,284,-1,283,284,285,-1,285,284,286,-1,285,286,287,-1,287,286,288,-1,287,288,289,-1,289,288,290,-1,289,290,291,-1,291,290,292,-1,291,292,293,-1,293,292,294,-1,293,294,295,-1,295,294,279,-1,295,279,278,-1,296,297,298,-1,296,298,299,-1,299,298,300,-1,299,300,301,-1,301,300,302,-1,301,302,303,-1,303,302,304,-1,303,304,305,-1,305,304,306,-1,305,306,307,-1,307,306,308,-1,307,308,309,-1,309,308,310,-1,309,310,311,-1,311,310,281,-1,311,281,280,-1,312,313,314,-1,312,314,315,-1,315,314,316,-1,315,316,317,-1,317,316,297,-1,317,297,296,-1,312,318,313,-1,313,318,319,-1,319,318,320,-1,321,322,323,-1,321,323,324,-1,324,323,325,-1,324,325,320,-1,320,325,326,-1,320,326,319,-1,322,321,327,-1,327,321,328,-1,327,328,329,-1,329,328,330,-1,329,330,331,-1,331,330,332,-1,331,332,333,-1,333,332,334,-1,333,334,335,-1,335,334,336,-1,335,336,337,-1,337,336,338,-1,337,338,339,-1,339,338,340,-1,339,340,341,-1,342,343,344,-1,342,344,345,-1,345,344,346,-1,345,346,347,-1,347,346,348,-1,347,348,349,-1,349,348,350,-1,349,350,351,-1,351,350,352,-1,351,352,353,-1,353,352,354,-1,353,354,355,-1,355,354,341,-1,355,341,340,-1,342,356,343,-1,343,356,357,-1,358,359,360,-1,358,360,361,-1,361,360,362,-1,361,362,363,-1,363,362,364,-1,363,364,365,-1,365,364,366,-1,365,366,367,-1,367,366,368,-1,367,368,369,-1,369,368,370,-1,369,370,371,-1,371,370,357,-1,371,357,356,-1,372,373,374,-1,372,374,375,-1,375,374,376,-1,375,376,377,-1,376,378,377,-1,377,378,379,-1,377,379,380,-1,380,379,381,-1,380,381,382,-1,382,381,383,-1,382,383,384,-1,384,383,385,-1,384,385,386,-1,386,385,359,-1,386,359,358,-1,373,372,387,-1,387,372,388,-1,387,388,389,-1,389,388,390,-1,389,390,391,-1,391,390,236,-1,391,236,238,-1,276,274,278,-1,278,274,260,-1,278,260,295,-1,295,260,263,-1,237,236,245,-1,245,236,390,-1,245,390,243,-1,243,390,388,-1,243,388,240,-1,240,388,372,-1,240,372,259,-1,259,372,375,-1,259,375,257,-1,257,375,377,-1,257,377,255,-1,255,377,380,-1,255,380,253,-1,253,380,382,-1,253,382,251,-1,251,382,384,-1,251,384,249,-1,249,384,386,-1,249,386,246,-1,386,358,246,-1,246,358,361,-1,246,361,273,-1,273,361,363,-1,273,363,271,-1,271,363,365,-1,271,365,269,-1,269,365,367,-1,269,367,267,-1,267,367,369,-1,267,369,265,-1,265,369,371,-1,265,371,263,-1,263,371,356,-1,263,356,295,-1,295,356,342,-1,295,342,293,-1,293,342,345,-1,293,345,291,-1,291,345,347,-1,291,347,289,-1,289,347,349,-1,289,349,287,-1,287,349,351,-1,287,351,285,-1,285,351,353,-1,285,353,283,-1,283,353,355,-1,283,355,280,-1,280,355,340,-1,280,340,311,-1,311,340,338,-1,311,338,309,-1,309,338,336,-1,309,336,307,-1,307,336,334,-1,307,334,305,-1,305,334,332,-1,305,332,303,-1,303,332,330,-1,303,330,301,-1,301,330,328,-1,301,328,299,-1,299,328,321,-1,299,321,296,-1,296,321,324,-1,296,324,317,-1,317,324,320,-1,317,320,315,-1,315,320,318,-1,315,318,312,-1,392,393,394,-1,394,393,395,-1,393,396,395,-1,395,396,397,-1,398,399,400,-1,398,400,401,-1,401,400,397,-1,401,397,396,-1,398,402,399,-1,399,402,403,-1,404,405,406,-1,404,406,407,-1,407,406,403,-1,407,403,402,-1,404,408,405,-1,405,408,409,-1,408,410,409,-1,409,410,411,-1,410,412,411,-1,411,412,413,-1,414,415,416,-1,414,416,417,-1,417,416,413,-1,417,413,412,-1,414,418,415,-1,415,418,419,-1,420,421,422,-1,420,422,423,-1,423,422,419,-1,423,419,418,-1,420,424,421,-1,421,424,425,-1,424,426,425,-1,425,426,427,-1,426,428,427,-1,427,428,429,-1,428,430,429,-1,429,430,431,-1,430,432,431,-1,431,432,433,-1,434,435,436,-1,434,436,437,-1,437,436,433,-1,437,433,432,-1,434,438,435,-1,435,438,439,-1,440,441,442,-1,440,442,443,-1,443,442,439,-1,443,439,438,-1,440,444,441,-1,441,444,445,-1,444,446,445,-1,445,446,447,-1,446,392,447,-1,447,392,394,-1,393,392,396,-1,396,392,446,-1,396,446,401,-1,401,446,398,-1,426,424,428,-1,428,424,420,-1,420,423,428,-1,428,423,418,-1,428,418,430,-1,430,418,414,-1,434,410,438,-1,438,410,408,-1,438,408,443,-1,443,408,440,-1,398,446,402,-1,402,446,444,-1,402,444,407,-1,434,437,410,-1,410,437,432,-1,410,432,412,-1,412,432,430,-1,412,430,417,-1,417,430,414,-1,440,408,444,-1,444,408,404,-1,444,404,407,-1,448,449,450,-1,450,449,451,-1,449,452,451,-1,451,452,453,-1,452,454,453,-1,453,454,455,-1,456,457,458,-1,456,458,459,-1,459,458,460,-1,459,460,461,-1,461,460,462,-1,461,462,463,-1,463,462,464,-1,463,464,465,-1,465,464,466,-1,465,466,467,-1,467,466,468,-1,467,468,469,-1,469,468,470,-1,469,470,471,-1,471,470,455,-1,471,455,454,-1,448,450,472,-1,448,472,473,-1,473,472,474,-1,473,474,475,-1,475,474,476,-1,475,476,477,-1,477,476,478,-1,477,478,479,-1,479,478,480,-1,479,480,481,-1,481,480,482,-1,481,482,483,-1,483,482,457,-1,483,457,456,-1,461,463,484,-1,484,463,465,-1,484,465,485,-1,485,465,467,-1,485,467,486,-1,486,467,469,-1,486,469,487,-1,487,469,471,-1,487,471,488,-1,488,471,454,-1,488,454,489,-1,489,454,452,-1,489,452,490,-1,490,452,449,-1,490,449,491,-1,491,449,448,-1,491,448,492,-1,492,448,473,-1,492,473,493,-1,493,473,475,-1,493,475,494,-1,494,475,477,-1,494,477,495,-1,495,477,479,-1,495,479,496,-1,496,479,481,-1,496,481,497,-1,497,481,483,-1,497,483,498,-1,498,483,456,-1,498,456,499,-1,499,456,459,-1,499,459,500,-1,500,459,461,-1,500,461,484,-1,488,489,501,-1,501,489,502,-1,488,501,503,-1,488,503,487,-1,487,503,504,-1,487,504,486,-1,486,504,505,-1,486,505,485,-1,485,505,506,-1,485,506,484,-1,484,506,507,-1,484,507,500,-1,500,507,508,-1,500,508,499,-1,499,508,509,-1,499,509,498,-1,498,509,510,-1,498,510,497,-1,497,510,511,-1,497,511,496,-1,496,511,512,-1,496,512,495,-1,495,512,513,-1,495,513,494,-1,494,513,514,-1,494,514,493,-1,493,514,515,-1,493,515,492,-1,492,515,516,-1,492,516,491,-1,490,491,517,-1,517,491,516,-1,489,490,502,-1,502,490,517,-1,518,519,520,-1,520,519,521,-1,519,522,521,-1,521,522,523,-1,522,524,523,-1,523,524,525,-1,524,526,525,-1,525,526,527,-1,526,528,527,-1,527,528,529,-1,528,530,529,-1,529,530,531,-1,530,532,531,-1,531,532,533,-1,532,518,533,-1,533,518,520,-1,518,532,528,-1,528,532,530,-1,519,518,522,-1,522,518,528,-1,522,528,524,-1,524,528,526,-1,
        ]
    }
}
Shape{
    appearance Appearance {
        material  Material 	{
            diffuseColor 0.25098039215686274 0.25098039215686274 0.25098039215686274
            specularColor 0.12549019607843137 0.12549019607843137 0.12549019607843137
            ambientIntensity 0.251
            transparency 0.0
            shininess 0.5
        }
    }
    geometry IndexedFaceSet {
        ccw TRUE
        solid FALSE
        coord DEF co Coordinate {
            point [
                0.3292 0.0507 0.4173, 0.3269 0.0158 0.4173, 0.3792 0.0947 0.4173, 0.3947 0.0767 0.4173, 0.3896 0.0856 0.4173, 0.3638 -0.0607 0.4173, 0.3733 0.0969 0.4173, 0.3663 0.0976 0.4173, 0.3347 0.0726 0.4173, 0.3295 -0.019 0.4173, 0.3345 -0.0371 0.4173, 0.3394 -0.0465 0.4173, 0.3964 -0.0363 0.4173, 0.4016 -0.0153 0.4173, 0.3656 -0.0608 0.4173, 0.4037 0.0171 0.4173, 0.401 0.0545 0.4173, 0.3843 0.0913 0.4173, 0.357 -0.0597 0.4173, 0.3581 0.0966 0.4173, 0.3519 0.0942 0.4173, 0.3735 -0.0599 0.4173, 0.3796 -0.0575 0.4173, 0.3462 0.0902 0.4173, 0.3406 0.0839 0.4173, 0.3451 -0.0533 0.4173, 0.3508 -0.0573 0.4173, 0.3853 -0.0535 0.4173, 0.3908 -0.0471 0.4173, 0.1675 -0.0128 0.4173, 0.2308 -0.0128 0.4173, 0.2013 0.0326 0.4173, 0.2308 0.0807 0.4173, -0.4125 0.0952 0.4173, -0.4125 -0.0584 0.4173, -0.3835 0.0952 0.4173, -0.3846 -0.0584 0.4173, -0.3638 -0.0565 0.4173, -0.3069 0.0203 0.4173, -0.3086 0.0399 0.4173, -0.3132 0.0555 0.4173, -0.3602 0.0928 0.4173, -0.3472 -0.0513 0.4173, -0.3338 -0.0433 0.4173, -0.3228 -0.0324 0.4173, -0.3145 -0.0189 0.4173, -0.3087 -0.0004 0.4173, -0.32 0.0676 0.4173, -0.3296 0.0778 0.4173, -0.3439 0.0871 0.4173
            ]
        }
        coordIndex [
            0,1,2,-1,3,4,5,-1,2,6,0,-1,0,6,7,-1,0,7,8,-1,1,9,2,-1,2,9,10,-1,2,10,11,-1,12,13,14,-1,14,13,15,-1,14,15,5,-1,5,15,16,-1,5,16,3,-1,4,17,5,-1,5,17,2,-1,5,2,18,-1,7,19,20,-1,14,21,22,-1,20,23,7,-1,7,23,24,-1,7,24,8,-1,11,25,2,-1,2,25,26,-1,2,26,18,-1,22,27,14,-1,14,27,28,-1,14,28,12,-1,29,30,31,-1,31,30,32,-1,33,34,35,-1,35,34,36,-1,35,36,37,-1,38,39,35,-1,35,39,40,-1,35,40,41,-1,37,42,35,-1,35,42,43,-1,35,43,44,-1,44,45,35,-1,35,45,46,-1,35,46,38,-1,47,48,40,-1,40,48,49,-1,40,49,41,-1,
        ]
    }
}